<?xml version="1.0" encoding="UTF-8" standalone="no"?>
<!-- Created with Inkscape (http://www.inkscape.org/) -->
<svg
   xmlns:dc="http://purl.org/dc/elements/1.1/"
   xmlns:cc="http://creativecommons.org/ns#"
   xmlns:rdf="http://www.w3.org/1999/02/22-rdf-syntax-ns#"
   xmlns:svg="http://www.w3.org/2000/svg"
   xmlns="http://www.w3.org/2000/svg"
   xmlns:sodipodi="http://sodipodi.sourceforge.net/DTD/sodipodi-0.dtd"
   xmlns:inkscape="http://www.inkscape.org/namespaces/inkscape"
   version="1.0"
   id="svg2"
   sodipodi:version="0.32"
   inkscape:version="0.46"
   sodipodi:docname="creole.svg"
   inkscape:output_extension="org.inkscape.output.svg.inkscape">
  <metadata
     id="metadata133">
    <rdf:RDF>
      <cc:Work
         rdf:about="">
        <dc:format>image/svg+xml</dc:format>
        <dc:type
           rdf:resource="http://purl.org/dc/dcmitype/StillImage" />
      </cc:Work>
    </rdf:RDF>
  </metadata>
  <sodipodi:namedview
     inkscape:window-height="650"
     inkscape:window-width="640"
     inkscape:pageshadow="2"
     inkscape:pageopacity="0.0"
     guidetolerance="10.0"
     gridtolerance="10.0"
     objecttolerance="10.0"
     borderopacity="1.0"
     bordercolor="#666666"
     pagecolor="#ffffff"
     id="base"
     showgrid="false"
     inkscape:zoom="2.0472216"
     inkscape:cx="36.722055"
     inkscape:cy="759.97973"
     inkscape:window-x="632"
     inkscape:window-y="25"
     inkscape:current-layer="svg2" />
  <defs
     id="defs4">
    <inkscape:perspective
       sodipodi:type="inkscape:persp3d"
       inkscape:vp_x="0 : 526.18109 : 1"
       inkscape:vp_y="0 : 1000 : 0"
       inkscape:vp_z="744.09448 : 526.18109 : 1"
       inkscape:persp3d-origin="372.04724 : 350.78739 : 1"
       id="perspective135" />
    <inkscape:perspective
       id="perspective2744"
       inkscape:persp3d-origin="372.04724 : 350.78739 : 1"
       inkscape:vp_z="744.09448 : 526.18109 : 1"
       inkscape:vp_y="0 : 1000 : 0"
       inkscape:vp_x="0 : 526.18109 : 1"
       sodipodi:type="inkscape:persp3d" />
  </defs>
  <g
     id="g2750"
     transform="translate(-128.72241,-232.60366)">
    <path
       style="fill:#fdca32"
       d="M 354.04724,587.8979 C 326.13071,579.37113 308.0768,555.13318 308.0768,526.18109 C 308.0768,508.0543 313.79724,494.43053 327.02143,481.06262 C 336.56896,471.41133 345.08111,466.55151 357.57487,463.6188 C 366.67523,461.48264 382.98294,462.11191 391.73859,464.9371 L 397.92993,466.93486 L 400.1629,464.55797 C 402.3423,462.23811 402.79953,462.18109 419.22155,462.18109 L 436.04724,462.18109 L 436.04724,479.00678 C 436.04724,495.50131 435.99973,495.8771 433.63327,498.10027 L 431.2193,500.36808 L 433.33242,506.02459 C 435.12116,510.81274 435.44873,513.90703 435.46623,526.18109 C 435.4851,539.41371 435.2603,541.27034 432.89426,547.42264 C 425.54939,566.52116 412.15222,579.89542 393.28879,586.96038 C 387.70549,589.05151 384.39963,589.54574 374.04724,589.837 C 363.2268,590.14143 360.5395,589.88088 354.04724,587.8979 z M 350.60611,575.64929 C 349.53849,574.84178 347.96349,574.20139 347.10611,574.22619 C 346.24873,574.251 346.89724,574.88945 348.54724,575.64498 C 352.46985,577.44111 352.97652,577.44217 350.60611,575.64929 z M 330.04724,568.28808 C 330.04724,566.72017 328.27297,565.18109 326.46545,565.18109 C 325.56417,565.18109 326.1125,567.84635 327.24724,568.98109 C 328.98525,570.7191 330.04724,570.45626 330.04724,568.28808 z M 331.23057,558.96442 C 330.51301,558.24686 330.04724,558.18782 330.04724,558.81442 C 330.04724,560.1492 331.22985,561.33181 331.89724,560.66442 C 332.18141,560.38026 331.88141,559.61526 331.23057,558.96442 z M 328.39232,558.63796 C 328.06663,557.78924 327.58569,557.3093 327.32357,557.57143 C 327.06144,557.83356 327.14359,558.52797 327.50612,559.11456 C 328.49217,560.71002 329.0685,560.40007 328.39232,558.63796 z M 361.23474,552.49798 C 360.51286,552.20911 359.65036,552.24463 359.31807,552.57692 C 358.98578,552.90922 359.57641,553.14556 360.63057,553.10214 C 361.79552,553.05416 362.03247,552.8172 361.23474,552.49798 z M 330.47812,544.06925 C 330.171,543.57233 330.62341,542.46206 331.48348,541.60199 C 332.34355,540.74192 333.04724,540.35674 333.04724,540.74603 C 333.04724,541.76912 337.33034,537.15255 339.33727,533.96627 C 341.62529,530.33372 341.50029,529.51162 338.54724,528.77045 C 337.17224,528.42534 336.04724,527.69191 336.04724,527.1406 C 336.04724,526.16822 336.93563,525.71088 343.79717,523.15099 C 345.58462,522.48413 348.38665,520.56838 350.02389,518.89377 L 353.00069,515.84903 L 350.77396,513.74217 C 349.54927,512.58339 347.62317,511.79366 346.49375,511.98721 C 345.0566,512.23349 344.08115,511.55093 343.24375,509.71305 C 340.90001,504.56909 342.48809,501.89927 345.04724,506.68109 C 345.86517,508.20941 347.25881,509.18109 348.63289,509.18109 C 349.86911,509.18109 351.03057,509.59349 351.21391,510.09753 C 351.39724,510.60157 353.20464,511.321 355.23036,511.69627 C 358.86185,512.36901 358.94945,512.30758 361.48036,507.31308 C 364.45683,501.43928 364.53588,501.05635 362.6202,501.79146 C 361.57819,502.19132 361.33985,501.77814 361.73683,500.26008 C 362.03585,499.11664 362.90302,498.18109 363.66387,498.18109 C 364.42472,498.18109 365.04724,497.73109 365.04724,497.18109 C 365.04724,496.63109 365.8775,496.18109 366.89225,496.18109 C 367.90701,496.18109 369.56928,495.26172 370.58619,494.13806 C 372.38937,492.14556 372.38702,492.11256 370.49117,492.80422 C 369.42201,493.19428 367.65961,494.11364 366.57473,494.84725 C 363.99456,496.592 363.04724,496.53153 363.04724,494.62207 C 363.04724,493.76461 362.62795,493.32219 362.11548,493.63891 C 361.60302,493.95563 361.86098,492.85719 362.68873,491.19793 C 363.51648,489.53867 364.72326,488.16307 365.37048,488.14105 C 366.0177,488.11903 365.2658,487.40664 363.69959,486.55795 C 361.02471,485.1085 360.76272,485.14228 359.38117,487.11472 C 358.03807,489.03226 355.34365,489.12854 356.52518,487.21678 C 357.55316,485.55347 353.95516,485.2795 352.08726,486.87885 C 350.62713,488.12905 350.39829,488.96851 351.13986,490.35415 C 351.67762,491.35897 351.74754,492.18109 351.29523,492.18109 C 349.98202,492.18109 350.04495,496.1736 351.35939,496.25137 C 352.01271,496.29003 351.65443,496.67036 350.56321,497.09655 C 348.03269,498.08489 345.04724,497.32193 345.04724,495.6869 C 345.04724,493.2183 342.52638,492.1066 340.46519,493.66623 C 338.02753,495.51073 337.04724,495.54567 337.04724,493.78808 C 337.04724,492.47782 335.01694,491.18109 332.96545,491.18109 C 332.46044,491.18109 332.04724,492.08109 332.04724,493.18109 C 332.04724,494.2922 332.71391,495.18109 333.54724,495.18109 C 334.37224,495.18109 335.04724,494.65609 335.04724,494.01442 C 335.04724,493.37276 335.33499,493.13551 335.68669,493.48721 C 336.03839,493.8389 335.11548,495.7139 333.6358,497.65387 C 330.66022,501.55505 327.77472,502.14943 324.81493,499.47085 C 323.20727,498.01594 322.79308,497.9743 322.04056,499.19189 C 320.82506,501.15862 319.93644,499.98903 319.8311,496.28379 C 319.78258,494.57731 319.37292,493.18109 318.92074,493.18109 C 317.77358,493.18109 314.98744,498.78795 315.75379,499.55431 C 316.09852,499.89904 315.80743,500.18109 315.10692,500.18109 C 314.38562,500.18109 314.08289,500.83161 314.40887,501.68109 C 314.72545,502.50609 314.58349,503.18109 314.09341,503.18109 C 312.83499,503.18109 310.74677,509.9557 311.44462,511.77427 C 311.76346,512.60515 311.63427,513.0439 311.15754,512.74926 C 310.04056,512.05893 309.02967,517.14909 309.11063,523.05609 C 309.16248,526.83989 309.3385,527.27186 310.0784,525.43109 C 311.62287,521.58866 312.74674,522.94122 312.79858,528.70478 C 312.84521,533.88881 313.52305,535.64446 317.26323,540.26853 C 317.96944,541.14162 319.33474,541.85412 320.29724,541.85186 C 322.4463,541.84682 322.47863,541.46963 320.49962,539.49061 C 318.55084,537.54184 319.45456,536.44432 321.56546,538.19621 C 322.85115,539.26324 323.34851,539.26249 324.33962,538.192 C 325.22262,537.2383 325.2298,537.06591 324.36634,537.5507 C 322.54013,538.57602 322.08707,536.90945 323.48296,534.3012 C 324.65538,532.11051 324.79669,532.07654 325.5106,533.81375 C 326.78907,536.92472 327.05747,541.05674 326.02261,541.69631 C 324.63958,542.55107 324.81279,546.54661 326.29724,548.03126 C 327.29731,549.03146 327.89607,548.85067 329.29188,547.12709 C 330.25143,545.94221 330.78524,544.56618 330.47812,544.06925 z M 318.55871,532.93109 C 318.16172,531.69359 317.91252,529.89359 318.00494,528.93109 C 318.09735,527.96859 317.69467,527.18109 317.1101,527.18109 C 316.52553,527.18109 316.04724,527.93109 316.04724,528.84776 C 316.04724,532.25769 314.67813,529.00019 314.39583,524.91859 C 314.13915,521.20749 314.24251,520.9606 315.22781,522.93109 C 315.84659,524.16859 316.97024,525.18109 317.72481,525.18109 C 318.47937,525.18109 319.5212,526.2975 320.03998,527.66199 C 320.66693,529.311 321.49693,529.94576 322.51523,529.555 C 323.35783,529.23166 324.04724,529.46526 324.04724,530.0741 C 324.04724,530.68295 323.14724,531.18109 322.04724,531.18109 C 319.85876,531.18109 319.29069,533.70915 321.29724,534.51881 C 322.09067,534.83897 321.95065,535.05203 320.91387,535.10214 C 320.01552,535.14556 318.95569,534.16859 318.55871,532.93109 z M 331.54724,525.18109 C 331.16209,524.55791 331.11003,523.78496 331.43156,523.46344 C 331.75309,523.14191 331.32731,522.37515 330.4854,521.75953 C 328.596,520.37797 327.18873,505.18109 328.95019,505.18109 C 329.55357,505.18109 330.04724,505.55179 330.04724,506.00487 C 330.04724,506.45795 330.76252,510.99268 331.63675,516.08203 C 333.14335,524.85275 333.11516,527.71804 331.54724,525.18109 z M 310.04724,520.24011 C 310.04724,517.82554 310.60335,517.58195 311.39658,519.64906 C 311.7064,520.45645 311.52955,521.38301 311.00357,521.70808 C 310.47759,522.03315 310.04724,521.37257 310.04724,520.24011 z M 380.63599,542.43651 C 380.46962,542.27014 379.55636,542.43223 378.60652,542.79671 C 377.26603,543.31111 377.17215,543.64025 378.187,544.26747 C 379.31491,544.96456 381.51739,543.31791 380.63599,542.43651 z M 390.95758,525.50134 C 387.92119,524.22464 384.05726,518.87051 384.05098,515.93109 C 384.04869,514.85935 383.28557,514.18109 382.08204,514.18109 C 379.34332,514.18109 373.4021,508.71783 372.5548,505.4203 C 371.91981,502.94905 371.21334,503.94955 365.33289,515.64795 L 358.81482,528.61481 L 361.18103,530.10619 C 362.48244,530.92646 365.07075,533.21992 366.93283,535.20277 L 370.31841,538.80797 L 382.07347,532.75823 C 393.73869,526.75471 393.80658,526.69926 390.95758,525.50134 z M 339.54724,491.18109 C 339.20732,490.63109 338.39326,490.18798 337.73822,490.1964 C 337.02261,490.2056 337.14595,490.59863 338.04724,491.18109 C 339.96836,492.42262 340.31455,492.42262 339.54724,491.18109 z M 370.65141,488.45192 C 370.31912,488.11963 370.08277,488.71026 370.12619,489.76442 C 370.17417,490.92937 370.41113,491.16632 370.73035,490.36859 C 371.01923,489.64671 370.9837,488.78421 370.65141,488.45192 z M 375.51416,489.21764 C 377.25167,487.29772 377.23311,487.2811 374.67695,488.46764 C 373.23919,489.13504 372.05933,490.01859 372.05504,490.43109 C 372.04084,491.79611 373.71085,491.21028 375.51416,489.21764 z M 346.72296,483.28298 C 348.14346,482.63576 349.03658,481.8371 348.70767,481.50819 C 347.65801,480.45853 343.04269,484.15944 343.16324,485.95414 C 343.26281,487.4365 343.34021,487.45297 343.70973,486.07042 C 343.9465,485.18455 345.30245,483.93021 346.72296,483.28298 z M 338.04724,481.46289 C 339.0921,480.61433 339.16796,480.23505 338.29724,480.21289 C 336.78252,480.17435 333.04724,483.75995 333.04724,485.25252 C 333.04724,485.8418 333.83474,485.5043 334.79724,484.50252 C 335.75974,483.50073 337.22224,482.1329 338.04724,481.46289 z M 352.39105,478.93109 C 351.95408,478.22148 352.8318,478.07563 360.06391,477.65609 C 363.51514,477.45588 365.02253,476.40189 363.34255,475.3636 C 361.81744,474.42103 352.91603,475.15977 353.54456,476.17675 C 353.81472,476.61388 353.31323,477.24878 352.43016,477.58765 C 351.24786,478.04133 350.98872,477.77596 351.44724,476.58109 C 351.92943,475.32453 351.67251,475.13073 350.30858,475.72213 C 349.33984,476.14218 347.10051,476.68968 345.33228,476.93879 C 343.56405,477.1879 341.68305,477.91499 341.15227,478.55453 C 340.43587,479.41775 341.8189,479.71268 346.52005,479.69922 C 350.00311,479.68925 352.64506,479.34359 352.39105,478.93109 z M 373.87903,478.18109 C 374.24654,478.18109 374.54724,476.82989 374.54724,475.17842 C 374.54724,472.49871 374.05314,472.01164 369.95334,470.6499 C 364.35284,468.78971 360.44235,469.63582 364.62089,471.80368 C 366.08112,472.56125 367.88358,473.18109 368.62636,473.18109 C 370.72381,473.18109 372.18736,476.6221 370.75044,478.17507 C 369.78744,479.21585 369.91293,479.34625 371.37903,478.82827 C 372.38651,478.47232 373.51151,478.18109 373.87903,478.18109 z M 353.04724,472.25441 C 353.04724,471.74474 353.83474,471.12194 354.79724,470.87042 C 356.2737,470.48458 356.29284,470.39496 354.91968,470.29709 C 354.02453,470.23329 352.73193,470.85609 352.04724,471.68109 C 351.18714,472.71745 351.14929,473.18109 351.9248,473.18109 C 352.54214,473.18109 353.04724,472.76409 353.04724,472.25441 z"
       id="path2764" />
    <path
       style="fill:#6598d5"
       d="M 354.04724,587.8979 C 326.13071,579.37113 308.0768,555.13318 308.0768,526.18109 C 308.0768,508.0543 313.79724,494.43053 327.02143,481.06262 C 336.56896,471.41133 345.08111,466.55151 357.57487,463.6188 C 366.65795,461.48669 382.98422,462.11216 391.70388,464.9263 L 397.86053,466.91326 L 400.29202,464.48177 C 402.27049,462.50329 403.54549,462.10904 407.13537,462.36568 L 411.54724,462.68109 L 391.54724,482.97308 L 371.54724,503.26508 L 365.18103,515.93994 L 358.81482,528.61481 L 361.18103,530.11274 C 362.48244,530.9366 365.12224,533.22625 367.04724,535.20085 L 370.54724,538.79104 L 382.37367,532.63904 L 394.2001,526.48705 L 391.17242,525.23294 C 387.94253,523.89508 385.50013,520.86708 384.56011,517.03525 C 384.06159,515.0031 387.54339,511.1257 410.01492,488.6883 L 436.04724,462.69551 L 436.04724,479.26399 C 436.04724,495.4866 435.99685,495.8798 433.63327,498.10027 L 431.2193,500.36808 L 433.33242,506.02459 C 435.12116,510.81274 435.44873,513.90703 435.46623,526.18109 C 435.4851,539.41371 435.2603,541.27034 432.89426,547.42264 C 425.54939,566.52116 412.15222,579.89542 393.28879,586.96038 C 387.70549,589.05151 384.39963,589.54574 374.04724,589.837 C 363.2268,590.14143 360.5395,589.88088 354.04724,587.8979 z M 350.60611,575.64929 C 349.53849,574.84178 347.96349,574.20139 347.10611,574.22619 C 346.24873,574.251 346.89724,574.88945 348.54724,575.64498 C 352.46985,577.44111 352.97652,577.44217 350.60611,575.64929 z M 330.04724,568.28808 C 330.04724,566.72017 328.27297,565.18109 326.46545,565.18109 C 325.56417,565.18109 326.1125,567.84635 327.24724,568.98109 C 328.98525,570.7191 330.04724,570.45626 330.04724,568.28808 z M 331.23057,558.96442 C 330.51301,558.24686 330.04724,558.18782 330.04724,558.81442 C 330.04724,560.1492 331.22985,561.33181 331.89724,560.66442 C 332.18141,560.38026 331.88141,559.61526 331.23057,558.96442 z M 328.39232,558.63796 C 328.06663,557.78924 327.58569,557.3093 327.32357,557.57143 C 327.06144,557.83356 327.14359,558.52797 327.50612,559.11456 C 328.49217,560.71002 329.0685,560.40007 328.39232,558.63796 z M 361.23474,552.49798 C 360.51286,552.20911 359.65036,552.24463 359.31807,552.57692 C 358.98578,552.90922 359.57641,553.14556 360.63057,553.10214 C 361.79552,553.05416 362.03247,552.8172 361.23474,552.49798 z M 330.47812,544.06925 C 330.171,543.57233 330.62341,542.46206 331.48348,541.60199 C 332.34355,540.74192 333.04724,540.35674 333.04724,540.74603 C 333.04724,541.76912 337.33034,537.15255 339.33727,533.96627 C 341.62529,530.33372 341.50029,529.51162 338.54724,528.77045 C 337.17224,528.42534 336.04724,527.69191 336.04724,527.1406 C 336.04724,526.16822 336.93563,525.71088 343.79717,523.15099 C 345.58462,522.48413 348.38665,520.56838 350.02389,518.89377 L 353.00069,515.84903 L 350.77396,513.74217 C 349.54927,512.58339 347.62317,511.79366 346.49375,511.98721 C 345.0566,512.23349 344.08115,511.55093 343.24375,509.71305 C 340.90001,504.56909 342.48809,501.89927 345.04724,506.68109 C 345.86517,508.20941 347.25881,509.18109 348.63289,509.18109 C 349.86911,509.18109 351.03057,509.59349 351.21391,510.09753 C 351.39724,510.60157 353.20464,511.321 355.23036,511.69627 C 358.86185,512.36901 358.94945,512.30758 361.48036,507.31308 C 364.45683,501.43928 364.53588,501.05635 362.6202,501.79146 C 361.57819,502.19132 361.33985,501.77814 361.73683,500.26008 C 362.03585,499.11664 362.90302,498.18109 363.66387,498.18109 C 364.42472,498.18109 365.04724,497.73109 365.04724,497.18109 C 365.04724,496.63109 365.8775,496.18109 366.89225,496.18109 C 367.90701,496.18109 369.56928,495.26172 370.58619,494.13806 C 372.38937,492.14556 372.38702,492.11256 370.49117,492.80422 C 369.42201,493.19428 367.65961,494.11364 366.57473,494.84725 C 363.99456,496.592 363.04724,496.53153 363.04724,494.62207 C 363.04724,493.76461 362.62795,493.32219 362.11548,493.63891 C 361.60302,493.95563 361.86098,492.85719 362.68873,491.19793 C 363.51648,489.53867 364.72326,488.16307 365.37048,488.14105 C 366.0177,488.11903 365.2658,487.40664 363.69959,486.55795 C 361.02471,485.1085 360.76272,485.14228 359.38117,487.11472 C 358.03807,489.03226 355.34365,489.12854 356.52518,487.21678 C 357.55316,485.55347 353.95516,485.2795 352.08726,486.87885 C 350.62713,488.12905 350.39829,488.96851 351.13986,490.35415 C 351.67762,491.35897 351.74754,492.18109 351.29523,492.18109 C 349.98202,492.18109 350.04495,496.1736 351.35939,496.25137 C 352.01271,496.29003 351.65443,496.67036 350.56321,497.09655 C 348.03269,498.08489 345.04724,497.32193 345.04724,495.6869 C 345.04724,493.2183 342.52638,492.1066 340.46519,493.66623 C 338.02753,495.51073 337.04724,495.54567 337.04724,493.78808 C 337.04724,492.47782 335.01694,491.18109 332.96545,491.18109 C 332.46044,491.18109 332.04724,492.08109 332.04724,493.18109 C 332.04724,494.2922 332.71391,495.18109 333.54724,495.18109 C 334.37224,495.18109 335.04724,494.65609 335.04724,494.01442 C 335.04724,493.37276 335.33499,493.13551 335.68669,493.48721 C 336.03839,493.8389 335.11548,495.7139 333.6358,497.65387 C 330.66022,501.55505 327.77472,502.14943 324.81493,499.47085 C 323.20727,498.01594 322.79308,497.9743 322.04056,499.19189 C 320.82506,501.15862 319.93644,499.98903 319.8311,496.28379 C 319.78258,494.57731 319.37292,493.18109 318.92074,493.18109 C 317.77358,493.18109 314.98744,498.78795 315.75379,499.55431 C 316.09852,499.89904 315.80743,500.18109 315.10692,500.18109 C 314.38562,500.18109 314.08289,500.83161 314.40887,501.68109 C 314.72545,502.50609 314.58349,503.18109 314.09341,503.18109 C 312.83499,503.18109 310.74677,509.9557 311.44462,511.77427 C 311.76346,512.60515 311.63427,513.0439 311.15754,512.74926 C 310.04056,512.05893 309.02967,517.14909 309.11063,523.05609 C 309.16248,526.83989 309.3385,527.27186 310.0784,525.43109 C 311.62287,521.58866 312.74674,522.94122 312.79858,528.70478 C 312.84521,533.88881 313.52305,535.64446 317.26323,540.26853 C 317.96944,541.14162 319.33474,541.85412 320.29724,541.85186 C 322.4463,541.84682 322.47863,541.46963 320.49962,539.49061 C 318.55084,537.54184 319.45456,536.44432 321.56546,538.19621 C 322.85115,539.26324 323.34851,539.26249 324.33962,538.192 C 325.22262,537.2383 325.2298,537.06591 324.36634,537.5507 C 322.54013,538.57602 322.08707,536.90945 323.48296,534.3012 C 324.65538,532.11051 324.79669,532.07654 325.5106,533.81375 C 326.78907,536.92472 327.05747,541.05674 326.02261,541.69631 C 324.63958,542.55107 324.81279,546.54661 326.29724,548.03126 C 327.29731,549.03146 327.89607,548.85067 329.29188,547.12709 C 330.25143,545.94221 330.78524,544.56618 330.47812,544.06925 z M 318.55871,532.93109 C 318.16172,531.69359 317.91252,529.89359 318.00494,528.93109 C 318.09735,527.96859 317.69467,527.18109 317.1101,527.18109 C 316.52553,527.18109 316.04724,527.93109 316.04724,528.84776 C 316.04724,532.25769 314.67813,529.00019 314.39583,524.91859 C 314.13915,521.20749 314.24251,520.9606 315.22781,522.93109 C 315.84659,524.16859 316.97024,525.18109 317.72481,525.18109 C 318.47937,525.18109 319.5212,526.2975 320.03998,527.66199 C 320.66693,529.311 321.49693,529.94576 322.51523,529.555 C 323.35783,529.23166 324.04724,529.46526 324.04724,530.0741 C 324.04724,530.68295 323.14724,531.18109 322.04724,531.18109 C 319.85876,531.18109 319.29069,533.70915 321.29724,534.51881 C 322.09067,534.83897 321.95065,535.05203 320.91387,535.10214 C 320.01552,535.14556 318.95569,534.16859 318.55871,532.93109 z M 331.54724,525.18109 C 331.16209,524.55791 331.11003,523.78496 331.43156,523.46344 C 331.75309,523.14191 331.32731,522.37515 330.4854,521.75953 C 328.596,520.37797 327.18873,505.18109 328.95019,505.18109 C 329.55357,505.18109 330.04724,505.55179 330.04724,506.00487 C 330.04724,506.45795 330.76252,510.99268 331.63675,516.08203 C 333.14335,524.85275 333.11516,527.71804 331.54724,525.18109 z M 310.04724,520.24011 C 310.04724,517.82554 310.60335,517.58195 311.39658,519.64906 C 311.7064,520.45645 311.52955,521.38301 311.00357,521.70808 C 310.47759,522.03315 310.04724,521.37257 310.04724,520.24011 z M 380.63599,542.43651 C 380.46962,542.27014 379.55636,542.43223 378.60652,542.79671 C 377.26603,543.31111 377.17215,543.64025 378.187,544.26747 C 379.31491,544.96456 381.51739,543.31791 380.63599,542.43651 z M 339.54724,491.18109 C 339.20732,490.63109 338.39326,490.18798 337.73822,490.1964 C 337.02261,490.2056 337.14595,490.59863 338.04724,491.18109 C 339.96836,492.42262 340.31455,492.42262 339.54724,491.18109 z M 370.65141,488.45192 C 370.31912,488.11963 370.08277,488.71026 370.12619,489.76442 C 370.17417,490.92937 370.41113,491.16632 370.73035,490.36859 C 371.01923,489.64671 370.9837,488.78421 370.65141,488.45192 z M 375.51416,489.21764 C 377.25167,487.29772 377.23311,487.2811 374.67695,488.46764 C 373.23919,489.13504 372.05933,490.01859 372.05504,490.43109 C 372.04084,491.79611 373.71085,491.21028 375.51416,489.21764 z M 346.72296,483.28298 C 348.14346,482.63576 349.03658,481.8371 348.70767,481.50819 C 347.65801,480.45853 343.04269,484.15944 343.16324,485.95414 C 343.26281,487.4365 343.34021,487.45297 343.70973,486.07042 C 343.9465,485.18455 345.30245,483.93021 346.72296,483.28298 z M 338.04724,481.46289 C 339.0921,480.61433 339.16796,480.23505 338.29724,480.21289 C 336.78252,480.17435 333.04724,483.75995 333.04724,485.25252 C 333.04724,485.8418 333.83474,485.5043 334.79724,484.50252 C 335.75974,483.50073 337.22224,482.1329 338.04724,481.46289 z M 352.39105,478.93109 C 351.95408,478.22148 352.8318,478.07563 360.06391,477.65609 C 363.51514,477.45588 365.02253,476.40189 363.34255,475.3636 C 361.81744,474.42103 352.91603,475.15977 353.54456,476.17675 C 353.81472,476.61388 353.31323,477.24878 352.43016,477.58765 C 351.24786,478.04133 350.98872,477.77596 351.44724,476.58109 C 351.92943,475.32453 351.67251,475.13073 350.30858,475.72213 C 349.33984,476.14218 347.10051,476.68968 345.33228,476.93879 C 343.56405,477.1879 341.68305,477.91499 341.15227,478.55453 C 340.43587,479.41775 341.8189,479.71268 346.52005,479.69922 C 350.00311,479.68925 352.64506,479.34359 352.39105,478.93109 z M 373.87903,478.18109 C 374.24654,478.18109 374.54724,476.82989 374.54724,475.17842 C 374.54724,472.49871 374.05314,472.01164 369.95334,470.6499 C 364.35284,468.78971 360.44235,469.63582 364.62089,471.80368 C 366.08112,472.56125 367.88358,473.18109 368.62636,473.18109 C 370.72381,473.18109 372.18736,476.6221 370.75044,478.17507 C 369.78744,479.21585 369.91293,479.34625 371.37903,478.82827 C 372.38651,478.47232 373.51151,478.18109 373.87903,478.18109 z M 353.04724,472.25441 C 353.04724,471.74474 353.83474,471.12194 354.79724,470.87042 C 356.2737,470.48458 356.29284,470.39496 354.91968,470.29709 C 354.02453,470.23329 352.73193,470.85609 352.04724,471.68109 C 351.18714,472.71745 351.14929,473.18109 351.9248,473.18109 C 352.54214,473.18109 353.04724,472.76409 353.04724,472.25441 z"
       id="path2762" />
    <path
       style="fill:#cb9832"
       d="M 357.04724,588.6101 C 327.92548,580.98884 307.59299,554.55992 308.24959,525.18109 C 308.39247,518.78767 308.47205,518.4746 308.78893,523.05922 C 309.0051,526.18691 309.82062,529.09733 310.73787,530.01458 C 311.78323,531.05994 311.93272,531.71926 311.18117,531.96978 C 310.55751,532.17767 310.04724,533.23681 310.04724,534.32344 C 310.04724,535.51337 310.48756,536.02699 311.15437,535.61488 C 311.90742,535.14947 312.04638,535.69028 311.58887,537.30586 C 311.08661,539.07942 311.17236,539.30846 311.92736,538.21005 C 313.26569,536.26298 314.29876,537.43412 314.29085,540.88942 C 314.28734,542.42484 314.56859,543.90609 314.91585,544.18109 C 315.69505,544.79814 317.14925,547.21374 320.62748,553.66875 C 322.10563,556.41197 324.04228,559.25784 324.93113,559.99291 C 325.81999,560.72798 325.98474,561.04448 325.29724,560.69623 C 324.56101,560.3233 324.04724,560.70383 324.04724,561.62207 C 324.04724,562.47953 324.45511,563.18109 324.95362,563.18109 C 325.45213,563.18109 325.61383,564.12245 325.31295,565.273 C 324.60895,567.96513 328.30031,571.47881 333.61126,573.17187 C 335.77605,573.86197 338.44724,574.89366 339.54724,575.4645 C 341.2619,576.35432 341.3706,576.28856 340.30912,575.00359 C 339.62815,574.17925 337.36476,572.99358 335.27936,572.36878 C 332.19722,571.44535 331.44543,570.72163 331.26165,568.5011 C 331.13731,566.99868 330.62336,565.35721 330.11955,564.8534 C 329.01429,563.74814 329.89803,560.97084 331.11555,561.72331 C 331.58786,562.01521 332.86059,561.36774 333.94385,560.28448 C 335.66133,558.567 335.72417,558.15785 334.43482,557.08779 C 333.62159,556.41287 333.17682,555.2858 333.44644,554.58318 C 333.73132,553.84078 333.05708,553.17489 331.8367,552.99339 C 329.72967,552.68004 328.06259,548.18109 330.05352,548.18109 C 330.60006,548.18109 331.04724,547.50609 331.04724,546.68109 C 331.04724,545.85609 331.48312,545.18109 332.01585,545.18109 C 332.54859,545.18109 332.70189,544.44469 332.35651,543.54464 C 331.92296,542.41482 332.16487,542.06019 333.13789,542.39915 C 334.0505,542.71707 335.68832,540.91476 337.78473,537.2856 C 341.70762,530.49456 341.79228,529.40619 338.4626,528.57049 C 336.35127,528.04058 336.12237,527.69743 337.2126,526.69658 C 337.94665,526.02271 340.57224,524.69639 343.04724,523.74919 C 347.32302,522.11282 353.04724,517.69588 353.04724,516.03295 C 353.04724,514.04227 348.60748,511.25336 346.34315,511.82167 C 345.03702,512.14949 344.08172,512.02696 344.22026,511.5494 C 344.35879,511.07183 343.89008,509.63005 343.17867,508.34544 C 341.47819,505.27486 342.65439,504.17521 344.62694,506.99142 C 345.47048,508.19574 346.75869,509.18109 347.48964,509.18109 C 348.22058,509.18109 350.10756,509.85332 351.68293,510.67493 C 357.43266,513.67362 359.38433,512.8222 362.55704,505.93109 C 364.74662,501.17535 368.06545,497.00005 376.43864,488.46716 C 386.49827,478.21566 387.46049,476.90683 387.65014,473.21716 C 387.76423,470.99732 387.45026,469.18109 386.95241,469.18109 C 386.45457,469.18109 386.04724,470.75609 386.04724,472.68109 C 386.04724,476.0435 384.8349,477.26458 383.55411,475.19221 C 383.17761,474.58302 382.03861,474.79586 380.58769,475.74654 C 379.02064,476.77331 378.01437,476.93692 377.58082,476.23543 C 377.22243,475.65554 377.45391,475.18109 378.09521,475.18109 C 378.80306,475.18109 378.98888,474.49346 378.56814,473.43109 C 378.18694,472.46859 377.70692,470.85353 377.50142,469.84207 C 377.20512,468.38369 377.4115,468.23851 378.49849,469.14063 C 379.36595,469.86056 380.09143,469.91861 380.47452,469.29875 C 380.80746,468.76004 380.65984,468.0597 380.14648,467.74242 C 378.18042,466.52733 370.21219,465.9894 368.48631,466.95525 C 367.23941,467.65305 366.12049,467.61927 364.88305,466.84648 C 363.48509,465.97344 362.42048,466.12011 360.06776,467.5099 C 358.05237,468.70041 357.04724,468.89623 357.04724,468.09834 C 357.04724,466.23011 347.63829,467.72093 343.00921,470.32262 C 338.11017,473.07603 337.79456,474.73133 342.54724,472.74554 C 344.47224,471.94122 346.04724,471.44073 346.04724,471.63334 C 346.04724,472.39057 338.84279,476.18109 337.40356,476.18109 C 334.18383,476.18109 327.34725,482.23637 326.18421,486.11827 C 324.8102,490.70431 324.77208,491.46918 325.95398,490.73873 C 326.45269,490.43051 326.63938,491.19145 326.36884,492.42971 C 325.88176,494.65916 325.89628,494.65733 327.85976,492.24104 L 329.84256,489.80098 L 329.32832,492.49104 C 328.94504,494.49605 329.21777,495.18109 330.39928,495.18109 C 331.46695,495.18109 331.776,495.72435 331.34592,496.84513 C 330.89346,498.02421 331.0774,498.28048 331.97707,497.72446 C 332.97917,497.10513 333.00757,497.3867 332.11182,499.06041 C 330.74747,501.60974 328.57911,501.91087 329.4427,499.43109 C 330.02125,497.76982 329.9834,497.76935 328.69626,499.42178 C 327.41615,501.06518 327.23985,501.05141 325.54201,499.17531 C 324.2666,497.766 323.38713,497.48404 322.51759,498.2057 C 320.89494,499.55237 319.93679,496.12984 321.26967,493.74812 C 322.60074,491.36961 321.37021,490.4983 318.87806,492.05467 C 315.20011,494.35159 323.01234,484.40465 329.52504,478.49839 C 336.90789,471.80301 348.50695,465.88267 358.67259,463.62103 C 368.46132,461.44325 382.88141,462.10147 391.48229,465.11867 L 397.41733,467.2007 L 400.10358,464.62711 C 402.30652,462.51656 403.57766,462.10997 407.16854,462.3673 L 411.54724,462.68109 L 391.54724,482.9728 L 371.54724,503.26451 L 364.65301,516.9728 C 360.86118,524.51236 357.1058,532.25609 356.30773,534.18109 L 354.8567,537.68109 L 358.41209,534.27357 L 361.96749,530.86605 L 366.11084,535.0094 L 370.25419,539.15274 L 382.29628,533.01331 L 394.33838,526.87389 L 390.82843,525.07318 C 387.76955,523.50388 384.04724,518.26148 384.04724,515.52275 C 384.04724,515.0519 395.74724,502.97316 410.04724,488.68109 L 436.04724,462.69551 L 436.04724,478.54395 C 436.04724,494.07814 435.99661,494.45254 433.49398,497.42675 C 431.88936,499.33374 431.19246,501.0593 431.61828,502.07111 C 434.10429,507.97828 436.04551,518.55132 436.03246,526.11346 C 436.00089,544.41129 430.2861,558.01345 417.08285,571.2167 C 407.58563,580.71392 398.63555,585.90102 387.04724,588.62412 C 378.96461,590.52342 364.33216,590.51659 357.04724,588.6101 z M 373.04724,584.77566 C 373.04724,584.55268 369.33474,583.02593 364.79724,581.38289 C 360.25974,579.73985 354.47209,577.29108 351.9358,575.94118 C 349.39951,574.59128 346.30357,573.21988 345.05592,572.89361 C 343.48022,572.48156 342.97639,571.80811 343.40608,570.68835 C 343.74631,569.80172 343.30528,567.97835 342.42601,566.63641 C 341.54674,565.29448 341.09452,563.50027 341.42107,562.64928 C 342.13314,560.79365 340.07562,557.18109 338.30669,557.18109 C 336.52731,557.18109 336.73979,558.84913 338.61062,559.56704 C 339.47048,559.897 339.88939,560.62748 339.54152,561.19034 C 339.19366,561.7532 338.52123,561.97403 338.04724,561.68109 C 337.57325,561.38815 336.87309,561.65385 336.49134,562.27154 C 335.99955,563.06727 335.54666,562.99915 334.93755,562.03785 C 334.26786,560.98094 334.07448,561.06785 334.06255,562.43109 C 334.05413,563.39359 334.72224,564.18109 335.54724,564.18109 C 336.57912,564.18109 337.03775,565.19535 337.01683,567.43109 C 336.99141,570.14779 336.81724,570.39048 335.95537,568.91006 C 335.38829,567.93599 334.46893,567.42047 333.91234,567.76447 C 332.44416,568.67185 337.00906,571.58315 340.01115,571.65404 C 341.76941,571.69555 342.50585,572.23834 342.41231,573.42378 C 342.31625,574.64097 343.32471,575.3261 345.91231,575.80161 C 347.91152,576.16899 349.80801,576.86958 350.12674,577.35847 C 351.30559,579.16672 373.04724,586.20243 373.04724,584.77566 z M 358.81807,572.99359 C 358.60037,572.34046 357.88756,571.62786 357.23406,571.41003 C 356.50331,571.16645 356.27982,571.62362 356.65355,572.59753 C 357.35107,574.41524 359.41803,574.79345 358.81807,572.99359 z M 344.39232,564.63796 C 344.06663,563.78924 343.58569,563.3093 343.32357,563.57143 C 343.06144,563.83356 343.14359,564.52797 343.50612,565.11456 C 344.49217,566.71002 345.0685,566.40007 344.39232,564.63796 z M 348.04724,563.18109 C 348.04724,562.63109 347.6238,562.18109 347.10626,562.18109 C 346.58872,562.18109 345.88716,562.63109 345.54724,563.18109 C 345.20732,563.73109 345.63076,564.18109 346.48822,564.18109 C 347.34568,564.18109 348.04724,563.73109 348.04724,563.18109 z M 391.29666,561.26442 C 390.40193,558.7342 388.89341,557.15813 387.93393,557.75112 C 387.44625,558.05252 387.04035,557.71007 387.03193,556.99011 C 387.02167,556.11316 386.77411,556.03937 386.28193,556.76655 C 385.87785,557.36356 384.64724,558.36237 383.54724,558.98614 C 381.93488,559.90046 381.86569,560.12617 383.19025,560.15068 C 384.09391,560.16741 385.0635,560.78109 385.34491,561.51442 C 385.62632,562.24776 387.20656,562.84776 388.85656,562.84776 C 391.16248,562.84776 391.72702,562.48144 391.29666,561.26442 z M 395.06624,561.6582 C 396.12302,560.38485 396.06116,560.23852 394.68868,560.76519 C 393.78589,561.11162 393.04724,561.79692 393.04724,562.28808 C 393.04724,563.57404 393.62611,563.39344 395.06624,561.6582 z M 355.29724,561.51881 C 354.60974,561.2414 353.48474,561.2414 352.79724,561.51881 C 352.10974,561.79622 352.67224,562.02319 354.04724,562.02319 C 355.42224,562.02319 355.98474,561.79622 355.29724,561.51881 z M 362.8737,556.67422 C 362.57659,556.37711 361.55636,556.43223 360.60652,556.79671 C 359.24948,557.31746 359.16348,557.6349 360.20504,558.27861 C 361.53525,559.10073 363.88659,557.68711 362.8737,556.67422 z M 371.85974,556.24359 C 372.10974,555.49359 371.73474,555.11859 370.98474,555.36859 C 370.26286,555.60921 369.47537,556.39671 369.23474,557.11859 C 368.98474,557.86859 369.35974,558.24359 370.10974,557.99359 C 370.83161,557.75297 371.61911,556.96546 371.85974,556.24359 z M 382.1748,554.48913 C 383.35379,553.03565 383.3406,552.92184 382.0812,553.68166 C 381.27489,554.16814 379.02489,554.87777 377.0812,555.25862 L 373.54724,555.95109 L 377.1748,556.06609 C 379.48505,556.13933 381.30074,555.56668 382.1748,554.48913 z M 363.38681,552.62362 C 363.0581,551.76701 362.13542,551.31701 361.33641,551.62362 C 360.5374,551.93023 359.47047,552.18109 358.96545,552.18109 C 358.46044,552.18109 358.04724,552.63109 358.04724,553.18109 C 358.04724,553.73109 359.38312,554.18109 361.01585,554.18109 C 363.29247,554.18109 363.84515,553.81803 363.38681,552.62362 z M 389.47581,551.60966 C 391.17703,549.90844 391.59718,547.18109 390.15802,547.18109 C 389.66895,547.18109 388.20646,548.07195 386.90802,549.16077 C 384.89324,550.85032 384.76708,551.28775 386.04724,552.14546 C 387.92924,553.40641 387.63273,553.45274 389.47581,551.60966 z M 342.04724,548.06306 C 342.04724,547.51306 341.59724,547.34117 341.04724,547.68109 C 340.49724,548.02101 340.04724,548.74912 340.04724,549.29912 C 340.04724,549.84912 340.49724,550.02101 341.04724,549.68109 C 341.59724,549.34117 342.04724,548.61306 342.04724,548.06306 z M 385.54724,548.18109 C 387.44817,546.08058 390.60055,545.61209 392.92535,547.0846 C 393.68332,547.56468 394.02027,548.41572 393.67413,548.97578 C 393.29882,549.58303 394.05128,549.52725 395.53821,548.83758 C 398.35786,547.52978 398.98419,545.90766 396.29724,546.8718 C 395.33474,547.21717 394.8705,547.14229 395.26559,546.7054 C 395.66068,546.26851 397.01068,545.85156 398.26559,545.77886 C 399.95912,545.68073 400.45831,545.13558 400.20222,543.66387 C 399.3982,539.0433 395.04724,537.36977 395.04724,541.68109 C 395.04724,543.44442 394.50357,544.18109 393.20223,544.18109 C 391.11705,544.18109 387.68797,540.87369 388.71173,539.84994 C 390.48054,538.08112 387.13052,539.45485 385.12988,541.31872 C 383.62239,542.72317 382.60342,543.081 382.15905,542.362 C 381.7025,541.62329 379.86828,542.06867 376.51497,543.73251 C 372.78116,545.58513 372.2303,546.1056 374.29724,545.8279 C 375.80974,545.62469 377.04724,545.84603 377.04724,546.31976 C 377.04724,547.2066 375.56574,547.55786 373.19689,547.23269 C 372.45419,547.13074 372.13437,547.51306 372.48617,548.08228 C 372.83797,548.65151 374.68514,549.05861 376.59099,548.98696 C 378.49685,548.91532 380.35417,549.15468 380.71837,549.51889 C 381.91212,550.71264 383.70598,550.21566 385.54724,548.18109 z M 404.37747,539.51752 C 405.00441,538.89059 399.33262,533.16374 398.11713,533.1964 C 397.05236,533.22501 394.54146,535.15037 395.54724,535.167 C 396.09724,535.17609 397.85473,536.30798 399.45278,537.68231 C 402.50784,540.30968 403.2928,540.6022 404.37747,539.51752 z M 403.04724,530.62207 C 403.04724,530.37953 402.59724,530.18109 402.04724,530.18109 C 401.49724,530.18109 401.04724,530.65765 401.04724,531.24011 C 401.04724,531.82257 401.49724,532.02101 402.04724,531.68109 C 402.59724,531.34117 403.04724,530.86461 403.04724,530.62207 z M 356.65141,515.45192 C 356.31912,515.11963 356.08277,515.71026 356.12619,516.76442 C 356.17417,517.92937 356.41113,518.16632 356.73035,517.36859 C 357.01923,516.64671 356.9837,515.78422 356.65141,515.45192 z M 328.04724,495.62207 C 328.04724,495.37953 327.59724,495.18109 327.04724,495.18109 C 326.49724,495.18109 326.04724,495.65765 326.04724,496.24011 C 326.04724,496.82257 326.49724,497.02101 327.04724,496.68109 C 327.59724,496.34117 328.04724,495.86461 328.04724,495.62207 z M 329.69481,518.99718 C 329.35367,517.72333 329.11447,514.20609 329.16326,511.18109 C 329.24545,506.08469 329.31195,505.93611 330.06938,509.15638 C 330.51896,511.06779 330.69218,512.94657 330.45431,513.33145 C 330.21645,513.71632 330.55534,515.20215 331.20741,516.63328 C 332.02743,518.43304 332.07264,519.55569 331.35403,520.2743 C 330.63541,520.99292 330.12382,520.59914 329.69481,518.99718 z M 309.12619,513.76442 C 309.08277,512.71026 309.31912,512.11963 309.65141,512.45192 C 309.9837,512.78422 310.01922,513.64671 309.73035,514.36859 C 309.41113,515.16632 309.17417,514.92937 309.12619,513.76442 z M 310.12619,509.76442 C 310.08277,508.71026 310.31912,508.11963 310.65141,508.45192 C 310.9837,508.78421 311.01922,509.64671 310.73035,510.36859 C 310.41113,511.16632 310.17417,510.92937 310.12619,509.76442 z M 312.07787,503.68109 C 312.07787,503.13109 312.51408,502.00609 313.04724,501.18109 C 313.5804,500.35609 314.01661,500.13109 314.01661,500.68109 C 314.01661,501.23109 313.5804,502.35609 313.04724,503.18109 C 312.51408,504.00609 312.07787,504.23109 312.07787,503.68109 z M 349.21534,496.43109 C 349.12289,495.74359 348.31714,495.18109 347.4248,495.18109 C 346.1177,495.18109 346.03725,494.89806 347.01088,493.7249 C 347.67558,492.92399 347.93132,491.80255 347.57921,491.23281 C 347.22709,490.66308 347.38309,489.40587 347.92587,488.43901 C 348.82501,486.83737 348.96909,486.82732 349.54663,488.32593 C 349.89526,489.23059 350.00117,491.70559 349.78198,493.82593 C 349.56278,495.94627 349.3078,497.11859 349.21534,496.43109 z M 337.54724,489.24919 C 336.44724,488.81396 334.87224,488.70484 334.04724,489.00671 C 332.75941,489.47792 332.74137,489.3169 333.91968,487.86832 C 335.6734,485.71238 336.24069,485.74698 339.04724,488.18109 C 341.44447,490.2602 340.96513,490.60153 337.54724,489.24919 z M 327.12619,487.76442 C 327.08277,486.71026 327.31912,486.11963 327.65141,486.45192 C 327.9837,486.78421 328.01923,487.64671 327.73035,488.36859 C 327.41113,489.16632 327.17417,488.92937 327.12619,487.76442 z M 368.40887,482.68109 C 368.09228,481.85609 367.26151,481.18109 366.5627,481.18109 C 364.81833,481.18109 362.62274,478.532 364.31312,478.46687 C 364.99188,478.44071 366.33474,478.09256 367.29724,477.69321 C 368.6474,477.13301 369.04724,477.45987 369.04724,479.12379 C 369.04724,480.82993 369.39017,481.08855 370.68882,480.36179 C 372.30344,479.45821 376.04724,481.58326 376.04724,483.40333 C 376.04724,484.89631 369.00335,484.23028 368.40887,482.68109 z"
       id="path2760" />
    <path
       style="fill:#2e50a3"
       d="M 357.04724,588.6101 C 327.92548,580.98884 307.59299,554.55992 308.24959,525.18109 C 308.39247,518.78767 308.47205,518.4746 308.78893,523.05922 C 309.0051,526.18691 309.82062,529.09733 310.73787,530.01458 C 311.78323,531.05994 311.93272,531.71926 311.18117,531.96978 C 310.55751,532.17767 310.04724,533.23681 310.04724,534.32344 C 310.04724,535.51337 310.48756,536.02699 311.15437,535.61488 C 311.90742,535.14947 312.04638,535.69028 311.58887,537.30586 C 311.08661,539.07942 311.17236,539.30846 311.92736,538.21005 C 313.26569,536.26298 314.29876,537.43412 314.29085,540.88942 C 314.28734,542.42484 314.56859,543.90609 314.91585,544.18109 C 315.69505,544.79814 317.14925,547.21374 320.62748,553.66875 C 322.10563,556.41197 324.04228,559.25784 324.93113,559.99291 C 325.81999,560.72798 325.98474,561.04448 325.29724,560.69623 C 324.56101,560.3233 324.04724,560.70383 324.04724,561.62207 C 324.04724,562.47953 324.45511,563.18109 324.95362,563.18109 C 325.45213,563.18109 325.61383,564.12245 325.31295,565.273 C 324.60895,567.96513 328.30031,571.47881 333.61126,573.17187 C 335.77605,573.86197 338.44724,574.89366 339.54724,575.4645 C 341.2619,576.35432 341.3706,576.28856 340.30912,575.00359 C 339.62815,574.17925 337.36476,572.99358 335.27936,572.36878 C 332.19722,571.44535 331.44543,570.72163 331.26165,568.5011 C 331.13731,566.99868 330.62336,565.35721 330.11955,564.8534 C 329.01429,563.74814 329.89803,560.97084 331.11555,561.72331 C 331.58786,562.01521 332.86059,561.36774 333.94385,560.28448 C 335.66133,558.567 335.72417,558.15785 334.43482,557.08779 C 333.62159,556.41287 333.17682,555.2858 333.44644,554.58318 C 333.73132,553.84078 333.05708,553.17489 331.8367,552.99339 C 329.72967,552.68004 328.06259,548.18109 330.05352,548.18109 C 330.60006,548.18109 331.04724,547.50609 331.04724,546.68109 C 331.04724,545.85609 331.48312,545.18109 332.01585,545.18109 C 332.54859,545.18109 332.70189,544.44469 332.35651,543.54464 C 331.92296,542.41482 332.16487,542.06019 333.13789,542.39915 C 334.0505,542.71707 335.68832,540.91476 337.78473,537.2856 C 341.70762,530.49456 341.79228,529.40619 338.4626,528.57049 C 336.35127,528.04058 336.12237,527.69743 337.2126,526.69658 C 337.94665,526.02271 340.57224,524.69639 343.04724,523.74919 C 347.32302,522.11282 353.04724,517.69588 353.04724,516.03295 C 353.04724,514.04227 348.60748,511.25336 346.34315,511.82167 C 345.03702,512.14949 344.08172,512.02696 344.22026,511.5494 C 344.35879,511.07183 343.89008,509.63005 343.17867,508.34544 C 341.47819,505.27486 342.65439,504.17521 344.62694,506.99142 C 345.47048,508.19574 346.75869,509.18109 347.48964,509.18109 C 348.22058,509.18109 350.10756,509.85332 351.68293,510.67493 C 357.43266,513.67362 359.38433,512.8222 362.55704,505.93109 C 364.74662,501.17535 368.06545,497.00005 376.43864,488.46716 C 386.49827,478.21566 387.46049,476.90683 387.65014,473.21716 C 387.76423,470.99732 387.45026,469.18109 386.95241,469.18109 C 386.45457,469.18109 386.04724,470.75609 386.04724,472.68109 C 386.04724,476.0435 384.8349,477.26458 383.55411,475.19221 C 383.17761,474.58302 382.03861,474.79586 380.58769,475.74654 C 379.02064,476.77331 378.01437,476.93692 377.58082,476.23543 C 377.22243,475.65554 377.45391,475.18109 378.09521,475.18109 C 378.80306,475.18109 378.98888,474.49346 378.56814,473.43109 C 378.18694,472.46859 377.70692,470.85353 377.50142,469.84207 C 377.20512,468.38369 377.4115,468.23851 378.49849,469.14063 C 379.36595,469.86056 380.09143,469.91861 380.47452,469.29875 C 380.80746,468.76004 380.65984,468.0597 380.14648,467.74242 C 378.18042,466.52733 370.21219,465.9894 368.48631,466.95525 C 367.23941,467.65305 366.12049,467.61927 364.88305,466.84648 C 363.48509,465.97344 362.42048,466.12011 360.06776,467.5099 C 358.05237,468.70041 357.04724,468.89623 357.04724,468.09834 C 357.04724,466.23011 347.63829,467.72093 343.00921,470.32262 C 338.11017,473.07603 337.79456,474.73133 342.54724,472.74554 C 344.47224,471.94122 346.04724,471.44073 346.04724,471.63334 C 346.04724,472.39057 338.84279,476.18109 337.40356,476.18109 C 334.18383,476.18109 327.34725,482.23637 326.18421,486.11827 C 324.8102,490.70431 324.77208,491.46918 325.95398,490.73873 C 326.45269,490.43051 326.63938,491.19145 326.36884,492.42971 C 325.88176,494.65916 325.89628,494.65733 327.85976,492.24104 L 329.84256,489.80098 L 329.32832,492.49104 C 328.94504,494.49605 329.21777,495.18109 330.39928,495.18109 C 331.46695,495.18109 331.776,495.72435 331.34592,496.84513 C 330.89346,498.02421 331.0774,498.28048 331.97707,497.72446 C 332.97917,497.10513 333.00757,497.3867 332.11182,499.06041 C 330.74747,501.60974 328.57911,501.91087 329.4427,499.43109 C 330.02125,497.76982 329.9834,497.76935 328.69626,499.42178 C 327.41615,501.06518 327.23985,501.05141 325.54201,499.17531 C 324.2666,497.766 323.38713,497.48404 322.51759,498.2057 C 320.89494,499.55237 319.93679,496.12984 321.26967,493.74812 C 322.60074,491.36961 321.37021,490.4983 318.87806,492.05467 C 315.20011,494.35159 323.01234,484.40465 329.52504,478.49839 C 336.90789,471.80301 348.50695,465.88267 358.67259,463.62103 C 368.46132,461.44325 382.88141,462.10147 391.48229,465.11867 L 397.41733,467.2007 L 400.03701,464.69089 C 402.0294,462.78206 403.71885,462.18109 407.09258,462.18109 L 411.52849,462.18109 L 391.87224,481.93109 L 372.21598,501.68109 L 364.54858,517.08438 C 360.33151,525.55619 356.43927,533.65619 355.89917,535.08438 C 354.96791,537.5469 355.09933,537.50501 358.44233,534.27357 L 361.96749,530.86605 L 366.09051,534.98906 L 370.21352,539.11208 L 383.38038,532.56162 L 396.54724,526.01117 L 416.29724,506.35551 L 436.04724,486.69984 L 436.04724,490.54611 C 436.04724,493.21124 435.26316,495.3242 433.49398,497.42675 C 431.88936,499.33374 431.19246,501.0593 431.61828,502.07111 C 434.10429,507.97828 436.04551,518.55132 436.03246,526.11346 C 436.00089,544.41129 430.2861,558.01345 417.08285,571.2167 C 407.58563,580.71392 398.63555,585.90102 387.04724,588.62412 C 378.96461,590.52342 364.33216,590.51659 357.04724,588.6101 z M 373.04724,584.77566 C 373.04724,584.55268 369.33474,583.02593 364.79724,581.38289 C 360.25974,579.73985 354.47209,577.29108 351.9358,575.94118 C 349.39951,574.59128 346.30357,573.21988 345.05592,572.89361 C 343.48022,572.48156 342.97639,571.80811 343.40608,570.68835 C 343.74631,569.80172 343.30528,567.97835 342.42601,566.63641 C 341.54674,565.29448 341.09452,563.50027 341.42107,562.64928 C 342.13314,560.79365 340.07562,557.18109 338.30669,557.18109 C 336.52731,557.18109 336.73979,558.84913 338.61062,559.56704 C 339.47048,559.897 339.88939,560.62748 339.54152,561.19034 C 339.19366,561.7532 338.52123,561.97403 338.04724,561.68109 C 337.57325,561.38815 336.87309,561.65385 336.49134,562.27154 C 335.99955,563.06727 335.54666,562.99915 334.93755,562.03785 C 334.26786,560.98094 334.07448,561.06785 334.06255,562.43109 C 334.05413,563.39359 334.72224,564.18109 335.54724,564.18109 C 336.57912,564.18109 337.03775,565.19535 337.01683,567.43109 C 336.99141,570.14779 336.81724,570.39048 335.95537,568.91006 C 335.38829,567.93599 334.46893,567.42047 333.91234,567.76447 C 332.44416,568.67185 337.00906,571.58315 340.01115,571.65404 C 341.76941,571.69555 342.50585,572.23834 342.41231,573.42378 C 342.31625,574.64097 343.32471,575.3261 345.91231,575.80161 C 347.91152,576.16899 349.80801,576.86958 350.12674,577.35847 C 351.30559,579.16672 373.04724,586.20243 373.04724,584.77566 z M 358.81807,572.99359 C 358.60037,572.34046 357.88756,571.62786 357.23406,571.41003 C 356.50331,571.16645 356.27982,571.62362 356.65355,572.59753 C 357.35107,574.41524 359.41803,574.79345 358.81807,572.99359 z M 344.39232,564.63796 C 344.06663,563.78924 343.58569,563.3093 343.32357,563.57143 C 343.06144,563.83356 343.14359,564.52797 343.50612,565.11456 C 344.49217,566.71002 345.0685,566.40007 344.39232,564.63796 z M 348.04724,563.18109 C 348.04724,562.63109 347.6238,562.18109 347.10626,562.18109 C 346.58872,562.18109 345.88716,562.63109 345.54724,563.18109 C 345.20732,563.73109 345.63076,564.18109 346.48822,564.18109 C 347.34568,564.18109 348.04724,563.73109 348.04724,563.18109 z M 391.29666,561.26442 C 390.40193,558.7342 388.89341,557.15813 387.93393,557.75112 C 387.44625,558.05252 387.04035,557.71007 387.03193,556.99011 C 387.02167,556.11316 386.77411,556.03937 386.28193,556.76655 C 385.87785,557.36356 384.64724,558.36237 383.54724,558.98614 C 381.93488,559.90046 381.86569,560.12617 383.19025,560.15068 C 384.09391,560.16741 385.0635,560.78109 385.34491,561.51442 C 385.62632,562.24776 387.20656,562.84776 388.85656,562.84776 C 391.16248,562.84776 391.72702,562.48144 391.29666,561.26442 z M 395.06624,561.6582 C 396.12302,560.38485 396.06116,560.23852 394.68868,560.76519 C 393.78589,561.11162 393.04724,561.79692 393.04724,562.28808 C 393.04724,563.57404 393.62611,563.39344 395.06624,561.6582 z M 355.29724,561.51881 C 354.60974,561.2414 353.48474,561.2414 352.79724,561.51881 C 352.10974,561.79622 352.67224,562.02319 354.04724,562.02319 C 355.42224,562.02319 355.98474,561.79622 355.29724,561.51881 z M 362.8737,556.67422 C 362.57659,556.37711 361.55636,556.43223 360.60652,556.79671 C 359.24948,557.31746 359.16348,557.6349 360.20504,558.27861 C 361.53525,559.10073 363.88659,557.68711 362.8737,556.67422 z M 371.85974,556.24359 C 372.10974,555.49359 371.73474,555.11859 370.98474,555.36859 C 370.26286,555.60921 369.47537,556.39671 369.23474,557.11859 C 368.98474,557.86859 369.35974,558.24359 370.10974,557.99359 C 370.83161,557.75297 371.61911,556.96546 371.85974,556.24359 z M 382.1748,554.48913 C 383.35379,553.03565 383.3406,552.92184 382.0812,553.68166 C 381.27489,554.16814 379.02489,554.87777 377.0812,555.25862 L 373.54724,555.95109 L 377.1748,556.06609 C 379.48505,556.13933 381.30074,555.56668 382.1748,554.48913 z M 363.38681,552.62362 C 363.0581,551.76701 362.13542,551.31701 361.33641,551.62362 C 360.5374,551.93023 359.47047,552.18109 358.96545,552.18109 C 358.46044,552.18109 358.04724,552.63109 358.04724,553.18109 C 358.04724,553.73109 359.38312,554.18109 361.01585,554.18109 C 363.29247,554.18109 363.84515,553.81803 363.38681,552.62362 z M 389.47581,551.60966 C 391.17703,549.90844 391.59718,547.18109 390.15802,547.18109 C 389.66895,547.18109 388.20646,548.07195 386.90802,549.16077 C 384.89324,550.85032 384.76708,551.28775 386.04724,552.14546 C 387.92924,553.40641 387.63273,553.45274 389.47581,551.60966 z M 342.04724,548.06306 C 342.04724,547.51306 341.59724,547.34117 341.04724,547.68109 C 340.49724,548.02101 340.04724,548.74912 340.04724,549.29912 C 340.04724,549.84912 340.49724,550.02101 341.04724,549.68109 C 341.59724,549.34117 342.04724,548.61306 342.04724,548.06306 z M 385.54724,548.18109 C 387.44817,546.08058 390.60055,545.61209 392.92535,547.0846 C 393.68332,547.56468 394.02027,548.41572 393.67413,548.97578 C 393.29882,549.58303 394.05128,549.52725 395.53821,548.83758 C 398.35786,547.52978 398.98419,545.90766 396.29724,546.8718 C 395.33474,547.21717 394.8705,547.14229 395.26559,546.7054 C 395.66068,546.26851 397.01068,545.85156 398.26559,545.77886 C 399.95912,545.68073 400.45831,545.13558 400.20222,543.66387 C 399.3982,539.0433 395.04724,537.36977 395.04724,541.68109 C 395.04724,543.44442 394.50357,544.18109 393.20223,544.18109 C 391.11705,544.18109 387.68797,540.87369 388.71173,539.84994 C 390.48054,538.08112 387.13052,539.45485 385.12988,541.31872 C 383.62239,542.72317 382.60342,543.081 382.15905,542.362 C 381.7025,541.62329 379.86828,542.06867 376.51497,543.73251 C 372.78116,545.58513 372.2303,546.1056 374.29724,545.8279 C 375.80974,545.62469 377.04724,545.84603 377.04724,546.31976 C 377.04724,547.2066 375.56574,547.55786 373.19689,547.23269 C 372.45419,547.13074 372.13437,547.51306 372.48617,548.08228 C 372.83797,548.65151 374.68514,549.05861 376.59099,548.98696 C 378.49685,548.91532 380.35417,549.15468 380.71837,549.51889 C 381.91212,550.71264 383.70598,550.21566 385.54724,548.18109 z M 404.37747,539.51752 C 405.00441,538.89059 399.33262,533.16374 398.11713,533.1964 C 397.05236,533.22501 394.54146,535.15037 395.54724,535.167 C 396.09724,535.17609 397.85473,536.30798 399.45278,537.68231 C 402.50784,540.30968 403.2928,540.6022 404.37747,539.51752 z M 403.04724,530.62207 C 403.04724,530.37953 402.59724,530.18109 402.04724,530.18109 C 401.49724,530.18109 401.04724,530.65765 401.04724,531.24011 C 401.04724,531.82257 401.49724,532.02101 402.04724,531.68109 C 402.59724,531.34117 403.04724,530.86461 403.04724,530.62207 z M 356.65141,515.45192 C 356.31912,515.11963 356.08277,515.71026 356.12619,516.76442 C 356.17417,517.92937 356.41113,518.16632 356.73035,517.36859 C 357.01923,516.64671 356.9837,515.78422 356.65141,515.45192 z M 328.04724,495.62207 C 328.04724,495.37953 327.59724,495.18109 327.04724,495.18109 C 326.49724,495.18109 326.04724,495.65765 326.04724,496.24011 C 326.04724,496.82257 326.49724,497.02101 327.04724,496.68109 C 327.59724,496.34117 328.04724,495.86461 328.04724,495.62207 z M 329.69481,518.99718 C 329.35367,517.72333 329.11447,514.20609 329.16326,511.18109 C 329.24545,506.08469 329.31195,505.93611 330.06938,509.15638 C 330.51896,511.06779 330.69218,512.94657 330.45431,513.33145 C 330.21645,513.71632 330.55534,515.20215 331.20741,516.63328 C 332.02743,518.43304 332.07264,519.55569 331.35403,520.2743 C 330.63541,520.99292 330.12382,520.59914 329.69481,518.99718 z M 309.12619,513.76442 C 309.08277,512.71026 309.31912,512.11963 309.65141,512.45192 C 309.9837,512.78422 310.01922,513.64671 309.73035,514.36859 C 309.41113,515.16632 309.17417,514.92937 309.12619,513.76442 z M 310.12619,509.76442 C 310.08277,508.71026 310.31912,508.11963 310.65141,508.45192 C 310.9837,508.78421 311.01922,509.64671 310.73035,510.36859 C 310.41113,511.16632 310.17417,510.92937 310.12619,509.76442 z M 312.07787,503.68109 C 312.07787,503.13109 312.51408,502.00609 313.04724,501.18109 C 313.5804,500.35609 314.01661,500.13109 314.01661,500.68109 C 314.01661,501.23109 313.5804,502.35609 313.04724,503.18109 C 312.51408,504.00609 312.07787,504.23109 312.07787,503.68109 z M 349.21534,496.43109 C 349.12289,495.74359 348.31714,495.18109 347.4248,495.18109 C 346.1177,495.18109 346.03725,494.89806 347.01088,493.7249 C 347.67558,492.92399 347.93132,491.80255 347.57921,491.23281 C 347.22709,490.66308 347.38309,489.40587 347.92587,488.43901 C 348.82501,486.83737 348.96909,486.82732 349.54663,488.32593 C 349.89526,489.23059 350.00117,491.70559 349.78198,493.82593 C 349.56278,495.94627 349.3078,497.11859 349.21534,496.43109 z M 337.54724,489.24919 C 336.44724,488.81396 334.87224,488.70484 334.04724,489.00671 C 332.75941,489.47792 332.74137,489.3169 333.91968,487.86832 C 335.6734,485.71238 336.24069,485.74698 339.04724,488.18109 C 341.44447,490.2602 340.96513,490.60153 337.54724,489.24919 z M 327.12619,487.76442 C 327.08277,486.71026 327.31912,486.11963 327.65141,486.45192 C 327.9837,486.78421 328.01923,487.64671 327.73035,488.36859 C 327.41113,489.16632 327.17417,488.92937 327.12619,487.76442 z M 368.40887,482.68109 C 368.09228,481.85609 367.26151,481.18109 366.5627,481.18109 C 364.81833,481.18109 362.62274,478.532 364.31312,478.46687 C 364.99188,478.44071 366.33474,478.09256 367.29724,477.69321 C 368.6474,477.13301 369.04724,477.45987 369.04724,479.12379 C 369.04724,480.82993 369.39017,481.08855 370.68882,480.36179 C 372.30344,479.45821 376.04724,481.58326 376.04724,483.40333 C 376.04724,484.89631 369.00335,484.23028 368.40887,482.68109 z"
       id="path2758" />
    <path
       style="fill:#132d95"
       d="M 358.1781,588.64009 C 348.6146,586.56497 339.53694,582.03188 339.32556,579.22574 C 339.13166,576.65176 338.35265,575.54235 337.40474,576.49026 C 337.05136,576.84363 337.33146,577.81863 338.02718,578.65692 C 340.53927,581.68381 337.15057,580.11592 331.85213,575.79984 C 322.33059,568.04365 314.64954,556.47611 311.03739,544.45317 C 308.47419,535.92162 308.89662,532.17679 311.51929,540.18109 C 312.51046,543.20609 314.17674,547.38402 315.22215,549.46539 C 316.26755,551.54675 316.87352,553.65315 316.56875,554.14629 C 316.26398,554.63942 316.48051,555.33083 317.04994,555.68276 C 317.61937,556.03469 319.16153,558.42828 320.47696,561.00186 C 321.79239,563.57544 324.40188,567.15243 326.27583,568.95074 C 329.54813,572.09096 338.60328,576.18109 342.28312,576.18109 C 343.25339,576.18109 344.04724,576.60312 344.04724,577.11894 C 344.04724,577.63476 344.83474,578.05234 345.79724,578.04689 C 349.0106,578.0287 356.04724,580.84098 356.04724,582.14342 C 356.04724,582.49613 357.50974,582.82702 359.29724,582.87873 C 361.08474,582.93044 364.87356,583.73458 367.71684,584.66572 C 374.08526,586.7513 378.27506,586.26251 373.28059,584.01665 C 371.48393,583.20874 370.27637,582.2853 370.59712,581.96454 C 370.91787,581.64379 370.63083,581.04177 369.95926,580.62672 C 369.179,580.14449 368.99579,580.28883 369.45175,581.02658 C 370.45153,582.64426 369.70613,582.51184 361.83978,579.67429 C 353.42403,576.63856 350.8455,575.31653 351.44581,574.3452 C 351.69584,573.94065 351.14594,573.55043 350.22382,573.47804 C 348.857,573.37074 346.97532,572.98554 344.26206,572.2576 C 344.10521,572.21552 344.43911,571.31739 345.00407,570.26176 C 345.70651,568.94924 345.70669,568.23424 345.00464,568.00022 C 344.36051,567.78551 344.4697,566.9856 345.29771,565.85322 C 346.79849,563.80079 355.86811,562.04389 354.63122,564.0452 C 354.23402,564.68788 353.49014,564.95482 352.97814,564.63838 C 352.46615,564.32195 352.04724,564.52549 352.04724,565.09069 C 352.04724,565.65589 351.41776,565.87677 350.64839,565.58153 C 348.05173,564.5851 347.68098,567.39391 350.15342,569.33146 C 352.20925,570.94254 352.26486,571.12702 350.54724,570.63803 C 348.8495,570.1547 348.90756,570.33574 350.9314,571.83592 C 352.24269,572.80792 353.81769,573.72589 354.4314,573.87585 C 355.04511,574.02581 358.02224,574.67903 361.04724,575.32745 C 364.07224,575.97587 366.77327,576.8419 367.04953,577.25196 C 367.32579,577.66202 369.35079,578.27204 371.54953,578.60755 C 375.06136,579.14343 375.24339,579.08193 373.04724,578.10148 C 370.66955,577.03999 370.64509,576.94744 372.54724,576.2098 C 373.64724,575.78322 376.99758,575.09795 379.99244,574.68697 C 384.93898,574.00815 385.26489,573.81341 383.55131,572.56041 C 381.49284,571.05521 382.17259,570.80894 387.41016,571.16234 C 389.0794,571.27497 390.01881,570.9441 389.66324,570.36878 C 388.77173,568.92628 379.39164,566.87783 376.73315,567.54507 C 375.47983,567.85964 373.12527,567.72011 371.50081,567.235 C 369.87635,566.7499 369.22224,566.30063 370.04724,566.23663 C 371.20433,566.14687 371.12451,565.87457 369.6981,565.04551 C 368.68107,564.45439 366.54357,564.23182 364.9481,564.55092 C 363.35263,564.87001 362.04724,564.72223 362.04724,564.22251 C 362.04724,563.72279 360.80974,563.16574 359.29724,562.98461 C 357.78474,562.80348 361.83157,562.69542 368.29019,562.74448 C 379.50496,562.82965 384.51239,563.49164 377.80685,564.00258 C 372.69843,564.39183 373.55657,564.85463 380.75409,565.59204 C 385.28396,566.05614 387.63145,565.92845 387.87265,565.20485 C 388.21854,564.16718 393.61956,564.588 397.04724,565.91968 C 399.15944,566.74029 404.04724,567.06068 404.04724,566.37852 C 404.04724,564.9089 399.67615,561.38626 398.44079,561.86031 C 397.58343,562.18931 397.04724,561.73559 397.04724,560.68109 C 397.04724,559.45594 396.54814,559.16136 395.29724,559.64819 C 394.33474,560.02279 393.32224,560.40843 393.04724,560.50518 C 392.77224,560.60193 391.60961,559.74346 390.46362,558.59747 C 388.89543,557.02928 388.58543,555.95851 389.21046,554.26891 C 389.90403,552.39401 390.65958,552.07812 393.79408,552.35253 C 396.35883,552.57705 397.47061,552.29289 397.30525,551.45511 C 397.17215,550.78082 398.40965,549.23369 400.05525,548.01705 C 401.70084,546.80041 403.04724,544.98349 403.04724,543.97946 C 403.04724,542.97543 403.57623,541.30691 404.22277,540.27162 C 405.17165,538.75223 405.06859,538.05958 403.68825,536.67925 C 402.59334,535.58434 402.30589,534.55766 402.88914,533.82514 C 403.39015,533.19591 403.48331,531.81096 403.09616,530.74747 C 402.60732,529.40465 402.16603,529.17986 401.65189,530.01176 C 401.2447,530.67061 399.03592,532.16654 396.7435,533.33605 C 392.69104,535.40346 392.64216,535.4871 394.98087,536.35224 C 396.86405,537.04887 397.12333,537.505 396.17512,538.45322 C 395.24237,539.38596 394.79506,539.39109 394.22921,538.47552 C 393.74514,537.69228 392.99168,537.60461 392.02085,538.21856 C 391.21036,538.73111 389.28341,539.15735 387.73873,539.16578 C 385.25992,539.17929 368.77394,546.76893 365.20029,549.54178 C 364.10429,550.39219 364.19744,550.73827 365.70029,551.39936 C 366.93596,551.94293 366.5862,552.02218 364.6435,551.63882 C 361.67942,551.0539 356.04724,552.76144 356.04724,554.24499 C 356.04724,554.69669 356.94724,554.89293 358.04724,554.68109 C 360.75319,554.15997 360.60587,555.80174 357.88279,556.51384 C 356.12692,556.97301 355.94432,557.35216 356.91548,558.52232 C 357.91429,559.72582 357.48596,560.05411 354.32993,560.504 C 350.08658,561.10889 346.21309,561.80755 344.20114,562.33092 C 343.46078,562.52352 342.45906,561.65852 341.97509,560.40872 C 341.18266,558.36236 341.29167,558.24154 343.07119,559.19391 C 344.65516,560.04162 345.04724,559.93514 345.04724,558.65726 C 345.04724,557.78045 344.64439,557.31203 344.15202,557.61633 C 343.65966,557.92063 342.98086,557.4505 342.6436,556.57159 C 342.26544,555.58614 341.40462,555.21371 340.39793,555.60001 C 338.47981,556.33606 335.04724,555.4258 335.04724,554.18109 C 335.04724,553.16208 338.99752,551.6835 340.79724,552.02888 C 341.60722,552.18432 342.04724,551.02127 342.04724,548.72493 C 342.04724,544.92009 340.58052,543.75167 340.31014,547.34111 C 340.1387,549.61699 338.2053,551.39681 336.82867,550.54601 C 336.38094,550.26929 336.30461,549.57368 336.65904,549.00019 C 337.01348,548.4267 336.68332,547.55779 335.92535,547.06929 C 334.76776,546.32321 334.76438,546.04105 335.90425,545.30594 C 336.75585,544.75673 337.0095,543.63755 336.5853,542.30101 C 336.12043,540.83635 336.39751,539.98391 337.47254,539.57138 C 338.33231,539.24146 338.78678,538.56867 338.48248,538.0763 C 338.17818,537.58394 338.48076,537.18109 339.15489,537.18109 C 339.82902,537.18109 340.09852,536.89904 339.75379,536.55431 C 339.40906,536.20957 339.78406,534.65692 340.58712,533.10397 C 342.37931,529.63825 342.45982,527.80879 340.79198,528.4488 C 340.10158,528.71373 338.98475,528.33961 338.31012,527.61742 C 337.32574,526.56363 337.52424,526.17774 339.31538,525.66321 C 344.02239,524.31103 348.05156,522.02293 351.10831,518.96617 L 354.28359,515.79089 L 352.16541,514.0757 C 349.07519,511.57339 349.50383,511.21096 354.81021,511.83942 L 359.57319,512.40353 L 362.38486,506.52082 C 364.35043,502.40838 368.76241,496.8898 377.04611,488.18227 C 383.56338,481.33156 388.8765,475.49123 388.85304,475.20376 C 388.68707,473.1695 389.24558,472.31997 390.44609,472.78065 C 391.21546,473.07588 392.18928,472.76029 392.61013,472.07932 C 393.14745,471.20992 392.8685,471.0357 391.67343,471.49429 C 390.62981,471.89477 389.75691,471.58808 389.41665,470.70138 C 388.70408,468.84444 379.72841,465.53613 374.54724,465.22071 C 366.52231,464.73218 360.77055,465.009 360.16604,465.91285 C 359.8257,466.42172 357.74724,466.8055 355.54724,466.76569 C 353.34724,466.72588 350.42224,467.02342 349.04724,467.42689 C 347.67224,467.83036 348.12224,467.44267 350.04724,466.56535 C 360.60137,461.75531 378.33696,461.0999 390.93946,465.0542 C 396.97281,466.94729 397.4623,466.96505 399.65804,465.37049 C 400.93753,464.44132 401.99853,463.34359 402.01581,462.93109 C 402.0331,462.51859 404.17027,462.18109 406.76508,462.18109 L 411.48293,462.18109 L 391.36851,482.43109 L 371.25409,502.68109 L 366.02555,513.68109 C 363.14985,519.73109 358.32453,529.61832 355.30262,535.65271 C 349.42867,547.38228 349.6512,547.54117 359.15994,538.40702 L 364.77264,533.01543 L 367.25261,536.18425 L 369.73259,539.35307 L 383.13991,532.68212 L 396.54724,526.01117 L 416.29724,506.35551 L 436.04724,486.69984 L 436.04724,490.63575 C 436.04724,493.50249 435.34749,495.30203 433.47124,497.26041 L 430.89525,499.94917 L 433.07218,506.81513 C 444.13527,541.70775 423.19047,579.06509 387.43776,588.20909 C 378.48062,590.49994 367.49525,590.66176 358.1781,588.64009 z M 351.83667,580.78605 C 351.12748,580.01878 350.1617,579.62503 349.69048,579.91105 C 349.21926,580.19707 349.44426,580.81795 350.19048,581.29078 C 352.30062,582.62783 353.26556,582.33198 351.83667,580.78605 z M 352.62083,559.15311 C 354.10791,558.58772 355.06939,557.8699 354.75743,557.55795 C 353.90912,556.70964 348.04724,558.19699 348.04724,559.26054 C 348.04724,560.4527 349.27874,560.42377 352.62083,559.15311 z M 395.11298,558.14591 C 396.17682,557.57655 397.04724,556.58655 397.04724,555.94591 C 397.04724,555.07903 396.7403,555.08803 395.84724,555.98109 C 395.18724,556.64109 393.81068,557.18109 392.78822,557.18109 C 391.76576,557.18109 391.20732,557.63109 391.54724,558.18109 C 392.32129,559.43353 392.71427,559.42966 395.11298,558.14591 z M 339.54724,554.18109 C 339.20732,553.63109 338.50576,553.18109 337.98822,553.18109 C 337.47068,553.18109 337.04724,553.63109 337.04724,554.18109 C 337.04724,554.73109 337.7488,555.18109 338.60626,555.18109 C 339.46372,555.18109 339.88716,554.73109 339.54724,554.18109 z M 343.54724,554.18109 C 343.20732,553.63109 342.47921,553.18109 341.92921,553.18109 C 341.37921,553.18109 341.20732,553.63109 341.54724,554.18109 C 341.88716,554.73109 342.61527,555.18109 343.16527,555.18109 C 343.71527,555.18109 343.88716,554.73109 343.54724,554.18109 z M 338.54724,541.18109 C 338.20732,540.63109 337.73076,540.18109 337.48822,540.18109 C 337.24568,540.18109 337.04724,540.63109 337.04724,541.18109 C 337.04724,541.73109 337.5238,542.18109 338.10626,542.18109 C 338.68872,542.18109 338.88716,541.73109 338.54724,541.18109 z M 409.04724,529.18109 C 409.04724,528.63109 408.59724,528.18109 408.04724,528.18109 C 407.49724,528.18109 407.04724,528.63109 407.04724,529.18109 C 407.04724,529.73109 407.49724,530.18109 408.04724,530.18109 C 408.59724,530.18109 409.04724,529.73109 409.04724,529.18109 z M 346.42354,528.38124 C 346.69542,527.94133 346.06784,527.05054 345.02892,526.40172 C 343.04144,525.16052 341.40541,526.33357 342.54724,528.18109 C 343.28705,529.37812 345.72949,529.50424 346.42354,528.38124 z M 411.54724,523.18109 C 411.20732,522.63109 410.73076,522.18109 410.48822,522.18109 C 410.24568,522.18109 410.04724,522.63109 410.04724,523.18109 C 410.04724,523.73109 410.5238,524.18109 411.10626,524.18109 C 411.68872,524.18109 411.88716,523.73109 411.54724,523.18109 z M 357.48253,515.28305 C 356.85484,514.65536 355.06985,517.19515 355.09436,518.68109 C 355.10343,519.23109 355.76689,518.81394 356.56871,517.75409 C 357.37054,516.69424 357.78176,515.58227 357.48253,515.28305 z M 363.54724,568.16288 C 361.91677,567.44739 362.14772,567.31491 364.79724,567.44587 C 366.58474,567.53422 368.04724,567.96079 368.04724,568.3938 C 368.04724,569.39225 366.12386,569.29355 363.54724,568.16288 z M 334.04724,566.18109 C 334.04724,565.63109 334.7488,565.18109 335.60626,565.18109 C 336.46372,565.18109 336.88716,565.63109 336.54724,566.18109 C 336.20732,566.73109 335.50576,567.18109 334.98822,567.18109 C 334.47068,567.18109 334.04724,566.73109 334.04724,566.18109 z M 384.04724,564.18109 C 383.22224,563.64793 382.99724,563.21172 383.54724,563.21172 C 384.09724,563.21172 385.22224,563.64793 386.04724,564.18109 C 386.87224,564.71425 387.09724,565.15046 386.54724,565.15046 C 385.99724,565.15046 384.87224,564.71425 384.04724,564.18109 z M 335.04724,561.08747 C 335.04724,560.58896 335.94724,560.18109 337.04724,560.18109 C 338.14724,560.18109 339.04724,560.35361 339.04724,560.56446 C 339.04724,560.77531 338.14724,561.18318 337.04724,561.47084 C 335.94724,561.7585 335.04724,561.58598 335.04724,561.08747 z M 373.07643,561.43413 C 366.15278,561.11016 363.42906,559.99033 364.67224,557.97884 C 364.94341,557.54008 365.61527,557.18109 366.16527,557.18109 C 366.71527,557.18109 366.88855,557.62884 366.55033,558.17608 C 366.17526,558.78296 367.53443,559.10842 370.03475,559.01045 C 372.99897,558.8943 373.99231,558.48033 373.62205,557.51545 C 373.0202,555.94705 374.63434,555.70399 375.57238,557.22177 C 375.92613,557.79414 376.96518,558.03814 377.8814,557.764 C 378.8958,557.46048 380.24985,558.22669 381.34393,559.72332 C 382.57172,561.40287 382.73003,562.11818 381.84393,561.98239 C 381.13075,561.87311 377.18537,561.62639 373.07643,561.43413 z M 360.54724,560.18109 C 360.20732,559.63109 360.63076,559.18109 361.48822,559.18109 C 362.34568,559.18109 363.04724,559.63109 363.04724,560.18109 C 363.04724,560.73109 362.6238,561.18109 362.10626,561.18109 C 361.58872,561.18109 360.88716,560.73109 360.54724,560.18109 z M 381.60285,557.27106 C 380.68116,555.77974 384.45814,553.19704 386.07008,554.21637 C 387.3028,554.99589 387.24788,555.153 385.73822,555.16578 C 384.74326,555.1742 384.17818,555.58394 384.48248,556.0763 C 384.78678,556.56867 384.37775,557.22402 383.57352,557.53263 C 382.76929,557.84124 381.88249,557.72354 381.60285,557.27106 z M 361.04724,555.18109 C 361.04724,554.63109 361.49724,554.18109 362.04724,554.18109 C 362.59724,554.18109 363.04724,554.63109 363.04724,555.18109 C 363.04724,555.73109 362.59724,556.18109 362.04724,556.18109 C 361.49724,556.18109 361.04724,555.73109 361.04724,555.18109 z M 366.79724,554.56866 C 367.48474,554.26383 368.04724,553.26017 368.04724,552.3383 C 368.04724,551.41644 368.99433,550.07072 370.15188,549.34781 C 371.3823,548.5794 371.97057,548.49613 371.56809,549.14735 C 371.09807,549.90787 371.67648,550.06127 373.39128,549.63088 C 376.3684,548.88367 380.31903,549.93231 379.50274,551.25309 C 378.74338,552.48177 379.72053,552.42631 382.19863,551.10007 C 385.12473,549.53407 385.53902,550.62884 382.71944,552.47631 C 381.40482,553.33768 378.35327,554.30395 375.93823,554.62358 C 371.67013,555.18845 371.61721,555.16218 374.04724,553.68477 L 376.54724,552.16483 L 373.54724,552.82693 C 371.89724,553.19109 370.32224,553.75725 370.04724,554.08506 C 369.77224,554.41288 368.64724,554.7805 367.54724,554.90199 C 366.44724,555.02349 366.10974,554.87349 366.79724,554.56866 z M 308.27924,529.18109 C 308.27924,527.25609 308.48504,526.46859 308.73657,527.43109 C 308.98809,528.39359 308.98809,529.96859 308.73657,530.93109 C 308.48504,531.89359 308.27924,531.10609 308.27924,529.18109 z M 329.71391,517.51442 C 329.34724,517.14776 329.06092,516.13526 329.07765,515.26442 C 329.10262,513.96412 329.29776,514.00732 330.16931,515.50609 C 331.24609,517.35778 330.93392,518.73443 329.71391,517.51442 z M 329.20513,510.18109 C 329.20513,508.80609 329.43211,508.24359 329.70952,508.93109 C 329.98693,509.61859 329.98693,510.74359 329.70952,511.43109 C 329.43211,512.11859 329.20513,511.55609 329.20513,510.18109 z M 344.68561,510.68109 C 345.0022,509.85609 344.81556,509.18109 344.27086,509.18109 C 343.72616,509.18109 343.04515,508.28109 342.75749,507.18109 C 342.46983,506.08109 342.64235,505.18109 343.14086,505.18109 C 343.63937,505.18109 344.04724,505.74784 344.04724,506.44054 C 344.04724,507.13324 344.9647,508.27296 346.08604,508.97325 C 348.23495,510.31527 347.90549,512.18109 345.51961,512.18109 C 344.67747,512.18109 344.34173,511.57723 344.68561,510.68109 z M 320.07747,489.1246 C 320.6828,487.99354 321.82363,486.82039 322.61265,486.51761 C 323.40168,486.21484 324.04724,485.35666 324.04724,484.61056 C 324.04724,483.20833 334.39725,474.11174 338.32425,472.06254 C 340.12305,471.12388 340.01266,471.40615 337.74572,473.54181 C 336.20488,474.99341 334.60619,476.18109 334.19306,476.18109 C 332.92712,476.18109 325.06268,484.39705 325.55935,485.20069 C 325.81558,485.61527 325.35517,486.51056 324.53623,487.19023 C 323.71729,487.86989 323.04724,489.04588 323.04724,489.80354 C 323.04724,490.56119 322.13141,491.18109 321.01206,491.18109 C 319.26812,491.18109 319.13437,490.8868 320.07747,489.1246 z M 379.61867,472.60966 C 377.47473,470.46572 377.6457,469.89583 380.04724,471.18109 C 381.14724,471.76979 382.04724,472.68562 382.04724,473.21627 C 382.04724,474.57521 381.43005,474.42104 379.61867,472.60966 z M 341.04724,470.75146 C 341.04724,470.47646 341.94724,469.76979 343.04724,469.18109 C 344.14724,468.59239 345.04724,468.33572 345.04724,468.61072 C 345.04724,468.88572 344.14724,469.59239 343.04724,470.18109 C 341.94724,470.76979 341.04724,471.02646 341.04724,470.75146 z"
       id="path2756" />
    <path
       style="fill:#102160"
       d="M 358.04724,588.62101 C 345.6489,585.94855 330.41285,576.6423 323.53586,567.54132 C 321.18228,564.42659 321.9639,564.91125 327.5831,570.05089 C 337.07928,578.73664 340.03946,580.85336 343.54724,581.46623 C 345.19724,581.75451 349.02224,582.74654 352.04724,583.67073 C 355.07224,584.59492 361.14724,585.51664 365.54724,585.71901 C 369.94724,585.92138 374.39881,586.22063 375.43961,586.38402 C 376.48041,586.54741 377.53042,586.11859 377.77294,585.43109 C 378.03114,584.69917 377.38004,584.18109 376.202,584.18109 C 374.23137,584.18109 371.04724,581.77482 371.04724,580.28561 C 371.04724,579.10097 376.94989,579.68374 378.2643,580.99815 C 379.95582,582.68967 383.11306,582.51618 382.44243,580.76855 C 382.12188,579.93322 382.64549,579.17821 383.72382,578.92087 C 385.28464,578.5484 385.18721,578.32891 383.04724,577.3968 L 380.54724,576.30786 L 383.29724,576.24448 C 384.80974,576.20961 386.04724,575.77987 386.04724,575.2895 C 386.04724,574.79912 387.26127,574.0932 388.74509,573.72079 C 390.8607,573.1898 391.13047,572.84599 389.99509,572.12769 C 388.94502,571.46337 388.90033,571.20751 389.83242,571.1964 C 390.77156,571.18521 390.8515,570.68387 390.12933,569.33448 C 389.2907,567.76749 389.648,567.33227 392.48886,566.46039 C 394.40471,565.8724 396.41637,565.80024 397.19196,566.29169 C 398.98661,567.42887 404.04724,567.4237 404.04724,566.28468 C 404.04724,565.79166 402.47224,564.00541 400.54724,562.31523 C 398.59727,560.60314 397.04724,558.29555 397.04724,557.10465 C 397.04724,555.45534 396.64753,555.13513 395.29724,555.7027 C 394.33474,556.10727 392.49559,556.66536 391.21023,556.9429 C 389.21337,557.37406 388.92228,557.10064 389.21023,555.0643 C 389.45792,553.31271 390.27607,552.59723 392.29724,552.36467 C 393.93259,552.1765 395.04724,552.53012 395.04724,553.23711 C 395.04724,554.1307 395.41979,554.11679 396.54724,553.18109 C 397.37224,552.4964 398.04724,551.32668 398.04724,550.5817 C 398.04724,549.83672 399.17224,548.49007 400.54724,547.58913 C 401.92224,546.6882 403.04724,545.09672 403.04724,544.05251 C 403.04724,543.0083 403.57623,541.30691 404.22277,540.27162 C 405.17165,538.75223 405.06859,538.05958 403.68825,536.67925 C 402.59334,535.58434 402.30589,534.55766 402.88914,533.82514 C 403.39015,533.19591 403.48331,531.81096 403.09616,530.74747 C 402.60732,529.40465 402.16603,529.17986 401.65189,530.01176 C 401.2447,530.67061 399.03592,532.16654 396.7435,533.33605 C 392.78176,535.35717 392.68931,535.50454 394.87559,536.3133 C 396.14067,536.78128 396.88176,537.63983 396.52246,538.22119 C 396.08767,538.92469 395.46968,538.94665 394.67467,538.28685 C 393.92906,537.66804 392.92907,537.64404 392.0137,538.22298 C 391.20715,538.7331 389.42224,539.13743 388.04724,539.1215 C 384.41388,539.07941 356.10381,553.32569 356.07258,555.21188 C 356.05249,556.42572 354.97201,556.68069 350.85428,556.44333 C 342.25236,555.94747 339.79159,550.75312 344.01624,542.00912 C 345.47563,538.98852 345.72534,537.44813 344.98106,536.05742 C 343.7847,533.82202 345.53758,529.74807 347.2424,530.80171 C 347.9724,531.25287 348.16698,530.58779 347.82634,528.80585 C 347.54535,527.33598 347.70511,525.89254 348.18135,525.59821 C 349.63869,524.69752 349.14214,522.9307 347.59817,523.52317 C 346.80118,523.82901 347.81368,522.40177 349.84817,520.35154 C 352.0913,518.09104 353.6745,517.12709 353.87056,517.90246 C 354.3436,519.77315 355.82554,519.46387 357.01206,517.24683 C 357.58141,516.18299 358.04724,515.10613 358.04724,514.85382 C 358.04724,513.85379 354.67041,513.17278 354.12086,514.06198 C 353.77689,514.61853 352.74074,514.43014 351.61391,513.60618 C 348.92815,511.6423 349.847,511.22631 354.84659,512.14262 L 359.14595,512.93059 L 362.34659,506.62281 C 364.51123,502.35677 369.26965,496.38171 377.04724,488.16349 C 383.37224,481.48014 388.60349,475.60001 388.67224,475.09652 C 388.74099,474.59303 388.85349,473.74521 388.92224,473.21247 C 388.99099,472.67974 389.67672,472.48541 390.44609,472.78065 C 391.21546,473.07588 392.16062,472.80666 392.54644,472.18238 C 392.99193,471.46157 392.57266,471.16297 391.39759,471.36421 C 390.3799,471.53849 389.63823,471.18312 389.74944,470.57449 C 389.86065,469.96586 388.96065,468.99924 387.74944,468.42645 C 379.3491,464.45386 377.62891,464.06157 368.27337,463.98495 C 358.54858,463.9053 358.54807,463.90516 364.54724,462.98248 C 372.37672,461.7783 383.11234,462.63434 391.01089,465.09265 C 396.97327,466.94835 397.4636,466.9641 399.65804,465.37049 C 400.93753,464.44132 401.99853,463.34359 402.01581,462.93109 C 402.0331,462.51859 404.17027,462.18109 406.76508,462.18109 L 411.48293,462.18109 L 391.36851,482.43109 L 371.25409,502.68109 L 366.02555,513.68109 C 363.14985,519.73109 358.32453,529.61832 355.30262,535.65271 C 349.42867,547.38228 349.6512,547.54117 359.15994,538.40702 L 364.77264,533.01543 L 367.25261,536.18425 L 369.73259,539.35307 L 383.13991,532.68212 L 396.54724,526.01117 L 416.29724,506.35551 L 436.04724,486.69984 L 436.04724,490.63575 C 436.04724,493.50249 435.34749,495.30203 433.47124,497.26041 L 430.89525,499.94917 L 433.07218,506.81513 C 444.13527,541.70775 423.19047,579.06509 387.43776,588.20909 C 378.4531,590.50698 367.50843,590.66038 358.04724,588.62101 z M 409.04724,529.18109 C 409.04724,528.63109 408.59724,528.18109 408.04724,528.18109 C 407.49724,528.18109 407.04724,528.63109 407.04724,529.18109 C 407.04724,529.73109 407.49724,530.18109 408.04724,530.18109 C 408.59724,530.18109 409.04724,529.73109 409.04724,529.18109 z M 353.04724,522.77471 C 353.04724,521.81873 352.34382,521.55228 350.85079,521.94271 C 348.75432,522.49095 348.74294,522.55177 350.60079,523.27881 C 351.67134,523.69775 352.65974,524.07215 352.79724,524.11081 C 352.93474,524.14946 353.04724,523.54822 353.04724,522.77471 z M 411.54724,523.18109 C 411.20732,522.63109 410.73076,522.18109 410.48822,522.18109 C 410.24568,522.18109 410.04724,522.63109 410.04724,523.18109 C 410.04724,523.73109 410.5238,524.18109 411.10626,524.18109 C 411.68872,524.18109 411.88716,523.73109 411.54724,523.18109 z M 385.54724,567.18109 C 385.20732,566.63109 385.40576,566.18109 385.98822,566.18109 C 386.57068,566.18109 387.04724,566.63109 387.04724,567.18109 C 387.04724,567.73109 386.8488,568.18109 386.60626,568.18109 C 386.36372,568.18109 385.88716,567.73109 385.54724,567.18109 z M 368.81515,563.45636 C 370.6125,563.2338 373.3125,563.23839 374.81515,563.46656 C 376.3178,563.69474 374.84724,563.87683 371.54724,563.87122 C 368.24724,563.86561 367.0178,563.67892 368.81515,563.45636 z M 368.56679,560.21272 C 368.17358,559.57649 369.31591,559.18109 371.54724,559.18109 C 373.70462,559.18109 374.91576,558.77738 374.54724,558.18109 C 374.20732,557.63109 374.40576,557.18109 374.98822,557.18109 C 375.57068,557.18109 376.04724,557.86466 376.04724,558.70014 C 376.04724,559.80264 376.70288,560.05464 378.43815,559.61911 C 379.75314,559.28907 381.0896,559.44061 381.40804,559.95586 C 381.74106,560.4947 379.27185,560.96738 375.5957,561.06851 C 372.08047,561.16522 368.91746,560.78011 368.56679,560.21272 z M 392.31807,559.57692 C 392.65036,559.24463 393.51286,559.20911 394.23474,559.49798 C 395.03247,559.8172 394.79552,560.05416 393.63057,560.10214 C 392.57641,560.14556 391.98578,559.90922 392.31807,559.57692 z M 372.04724,554.78808 C 372.04724,554.57192 372.74561,554.12708 373.59918,553.79953 C 374.4891,553.45804 374.8905,553.62568 374.54016,554.19254 C 373.9529,555.14275 372.04724,555.59799 372.04724,554.78808 z M 376.50523,553.11312 C 376.14221,552.52574 374.31195,552.25178 372.43799,552.50432 C 370.56403,552.75686 368.80215,552.59354 368.5227,552.14138 C 367.85243,551.05686 368.80318,550.57788 373.19894,549.78556 C 375.86438,549.30512 377.27594,549.55264 378.42533,550.70204 C 379.62453,551.90124 380.46688,552.02687 381.95789,551.22891 C 385.30061,549.43994 385.70346,550.09081 382.54724,552.18109 C 379.17108,554.41703 377.47299,554.67898 376.50523,553.11312 z M 345.04724,511.78808 C 345.04724,511.57192 345.74561,511.12708 346.59918,510.79953 C 347.4891,510.45804 347.8905,510.62568 347.54016,511.19254 C 346.9529,512.14275 345.04724,512.59799 345.04724,511.78808 z M 380.0762,473.22015 C 379.26713,472.70848 378.8655,472.02949 379.1837,471.7113 C 379.5019,471.3931 380.33146,471.81863 381.02718,472.65692 C 382.46978,474.39514 382.19317,474.55896 380.0762,473.22015 z"
       id="path2754" />
    <path
       style="fill:#050713"
       d="M 362.54724,589.22916 L 359.54724,588.51385 L 363.39641,587.71758 C 365.51346,587.27962 369.87219,587.15947 373.08249,587.45057 C 377.96969,587.89373 379.19907,587.6708 380.6383,586.08047 C 381.58371,585.03581 382.94559,584.18109 383.66472,584.18109 C 389.261,584.18109 404.16829,574.80401 402.60171,572.26922 C 402.30859,571.79494 402.62642,571.42698 403.308,571.45153 C 406.84964,571.57908 408.04724,571.02339 408.04724,569.25252 C 408.04724,568.1918 407.44367,566.72037 406.70596,565.98267 C 405.96826,565.24497 405.32334,563.18704 405.2728,561.4095 C 405.22226,559.63195 404.89635,557.16588 404.54857,555.92934 C 404.08804,554.29196 404.18108,554.06479 404.89098,555.09327 C 405.72102,556.29579 406.1019,556.26928 407.45649,554.9147 C 409.71063,552.66056 409.57974,550.51859 407.29724,552.30864 C 405.72963,553.53805 405.6833,553.50711 406.85269,552.01181 C 407.95428,550.60321 407.8762,550.17852 406.35269,549.29222 C 405.35969,548.71455 404.99724,548.24417 405.54724,548.24693 C 406.09724,548.2497 407.67224,548.89507 409.04724,549.68109 C 411.77891,551.24265 414.45158,551.72249 412.087,550.22683 C 410.83358,549.434 410.88232,549.02081 412.43113,547.30939 C 414.17587,545.38147 414.1663,545.27239 412.14136,544.0078 C 410.9896,543.28851 410.04724,542.13324 410.04724,541.44054 C 410.04724,540.74784 409.63117,540.18109 409.12265,540.18109 C 408.61412,540.18109 408.39732,538.57446 408.64088,536.61081 C 408.92205,534.34384 408.712,533.27025 408.06547,533.66982 C 406.96799,534.3481 406.64579,532.91587 407.66629,531.89538 C 409.0095,530.55216 410.74218,533.89955 410.29186,536.96778 C 409.86734,539.86018 410.0719,540.18109 412.34012,540.18109 C 414.40857,540.18109 414.76151,540.55773 414.31022,542.28345 C 413.81989,544.15848 415.27513,546.12017 417.19025,546.16578 C 419.00121,546.2089 418.92369,542.50526 417.0609,539.98569 C 415.43791,537.79048 415.30697,537.18109 416.45829,537.18109 C 417.26729,537.18109 418.25073,536.66085 418.64371,536.02499 C 419.15731,535.19398 418.40064,535.04841 415.95273,535.50733 C 412.76331,536.10526 412.67232,536.05032 414.51855,534.64136 C 415.60276,533.81394 417.06526,533.35776 417.76855,533.62764 C 418.90334,534.0631 419.55982,532.24876 419.13708,529.84536 C 419.05624,529.38571 419.94671,527.46179 421.11591,525.56998 C 423.31954,522.00444 423.13953,519.18109 420.70859,519.18109 C 419.89978,519.18109 418.77133,521.09489 418.04003,523.70685 C 417.3431,526.19602 416.37728,528.47711 415.89375,528.77595 C 415.41023,529.07479 415.31649,529.80772 415.68544,530.4047 C 416.09457,531.06669 415.88879,531.2012 415.15794,530.74951 C 414.49887,530.34218 413.23067,530.61015 412.33972,531.345 C 410.89001,532.5407 410.84208,532.45158 411.88352,530.49683 C 413.48352,527.4937 413.35008,522.23453 411.65741,521.58499 C 409.94329,520.92722 405.05287,525.64497 405.03193,527.97654 C 405.02045,529.25441 404.81061,529.35635 404.19366,528.38376 C 403.54179,527.35613 403.08622,527.4292 402.00231,528.73522 C 400.00149,531.14607 391.37192,536.42349 385.04724,539.10411 C 382.02224,540.38621 373.56305,544.52802 366.24905,548.30814 C 352.14766,555.59621 347.67952,556.64222 344.70223,553.35235 C 341.44355,549.75155 342.68648,545.89303 354.66191,522.4337 L 366.27658,499.68109 L 379.66191,485.91942 C 387.02384,478.35049 393.04724,471.79293 393.04724,471.34705 C 393.04724,469.97992 384.92708,465.13109 381.13082,464.23134 C 377.61014,463.3969 377.5999,463.38017 380.54724,463.27837 C 382.19724,463.22138 386.82459,464.14614 390.83024,465.33339 L 398.11325,467.49203 L 400.88496,464.83656 C 402.92529,462.88181 404.69533,462.18109 407.59281,462.18109 L 411.52894,462.18109 L 391.3751,482.43109 L 371.22125,502.68109 L 361.14618,522.93464 C 355.60489,534.07409 350.40503,544.78235 349.59092,546.73078 L 348.11073,550.27337 L 352.19822,547.97723 C 354.44633,546.71435 358.45772,543.45183 361.11242,540.72719 C 365.88818,535.82558 365.96104,535.79311 368.01411,537.65111 C 370.06243,539.50481 370.25898,539.44159 383.31816,532.72873 L 396.54724,525.92854 L 416.29724,506.31419 L 436.04724,486.69984 L 436.04724,490.63575 C 436.04724,493.53068 435.34655,495.30302 433.39794,497.33692 L 430.74864,500.10219 L 432.39387,505.39164 C 436.3778,518.20013 436.92173,526.98034 434.47423,538.97325 C 429.35481,564.0587 409.96647,583.39885 384.70756,588.61622 C 376.89499,590.22996 367.79969,590.48152 362.54724,589.22916 z M 407.65141,561.45192 C 407.31912,561.11963 407.08277,561.71026 407.12619,562.76442 C 407.17417,563.92937 407.41113,564.16632 407.73035,563.36859 C 408.01923,562.64672 407.9837,561.78422 407.65141,561.45192 z M 422.51882,517.22708 C 422.8431,516.70237 422.81727,515.11301 422.46142,513.69516 C 421.87555,511.36087 421.69673,511.27819 420.56917,512.82021 C 419.88429,513.75684 419.53916,515.3462 419.80222,516.35213 C 420.32165,518.33845 421.58123,518.74413 422.51882,517.22708 z"
       id="path2752" />
  </g>
</svg>
