<?xml version="1.0" encoding="UTF-8" standalone="no"?>
<!-- Created with Inkscape (http://www.inkscape.org/) -->
<svg
   xmlns:svg="http://www.w3.org/2000/svg"
   xmlns="http://www.w3.org/2000/svg"
   version="1.0"
   id="svg2">
  <defs
     id="defs4" />
  <g
     id="g2407">
    <path
       d="M 351.82301,551.86332 C 349.29011,550.92633 346.58202,544.65995 347.45666,541.75981 C 348.45552,538.4478 352.83031,534.25488 356.01748,533.55486 C 357.58388,533.21082 359.12802,532.50453 359.44891,531.98532 C 360.51771,530.25596 352.80957,527.90156 347.22074,528.2503 C 341.10259,528.63208 339.79546,526.70878 344.9515,524.91137 C 346.73127,524.29094 349.04083,522.21791 350.46405,519.96339 C 352.82155,516.22887 353.11858,516.08321 358.37679,516.08321 C 366.80263,516.08321 373.15389,520.98398 374.97601,528.89155 C 376.241,534.38131 375.31357,536.37261 371.73628,535.84758 C 367.56789,535.23578 366.22289,537.96742 368.97181,541.46211 C 370.77881,543.75933 370.86072,544.36868 369.69069,546.80987 C 368.96442,548.32519 367.05092,550.1973 365.43848,550.97012 C 362.17063,552.53637 354.927,553.01156 351.82301,551.86332 z M 363.88841,536.08321 C 365.18576,535.2448 365.16325,535.11177 363.72174,535.09852 C 362.80508,535.0901 361.79258,534.52071 361.47174,533.83321 C 361.04986,532.92917 360.73676,532.89979 360.34046,533.72705 C 360.03909,534.35616 358.91409,534.64118 357.84046,534.36042 C 355.15082,533.65706 355.37717,534.94216 358.13841,536.05205 C 361.09793,537.24163 362.08759,537.24699 363.88841,536.08321 z"
       id="path2467"
       style="fill:#d0d0d0" />
    <path
       d="M 350.63841,549.73105 C 347.23464,546.57193 346.95114,541.54448 349.96099,537.71807 C 352.26058,534.79461 353.73632,534.53715 358.44143,536.23854 C 360.19869,536.87398 362.36257,537.11523 363.25006,536.77467 C 364.56605,536.26968 364.19208,535.50322 361.22264,532.61934 C 359.22007,530.67447 356.86314,529.07632 355.98501,529.0679 C 354.68295,529.05541 354.64388,528.89079 355.77327,528.17553 C 357.03882,527.37404 354.37637,527.43996 344.63841,528.45124 C 340.93842,528.83548 341.06348,526.56643 344.81436,525.25887 C 346.42363,524.69787 348.52964,522.96635 349.49439,521.41104 C 352.18051,517.08062 353.89062,516.08321 358.6292,516.08321 C 366.52968,516.08321 373.11421,521.54126 374.40081,529.15663 C 375.21848,533.99633 373.12678,537.35585 370.60098,535.25963 C 369.50323,534.34858 368.93601,534.62575 367.88701,536.58582 C 366.74595,538.71792 366.79307,539.32038 368.22463,540.90223 C 372.56759,545.70115 367.97786,551.23322 359.12471,551.87048 C 354.05197,552.23563 353.0703,551.98814 350.63841,549.73105 z M 363.88841,528.12743 C 363.88841,525.77444 362.80877,524.90442 361.37031,526.09824 C 360.70914,526.64696 360.3846,528.22803 360.64911,529.61174 C 361.03265,531.6181 361.40933,531.89577 362.50923,530.98294 C 363.26778,530.3534 363.88841,529.06842 363.88841,528.12743 z"
       id="path2465"
       style="fill:#aeaeae" />
    <path
       d="M 352.38841,550.94722 C 347.45834,548.20448 346.37151,542.28136 349.96099,537.71807 C 352.30769,534.73473 353.82363,534.48847 357.68807,536.46282 C 359.59759,537.4384 361.12056,537.56581 362.88841,536.89789 C 365.13652,536.04851 365.21209,535.85412 363.63841,534.96858 C 361.76898,533.91662 361.22204,531.08321 362.88841,531.08321 C 364.04182,531.08321 364.26356,526.40026 363.13841,525.80338 C 362.72591,525.58455 361.32994,525.9599 360.03626,526.6375 C 357.8149,527.80099 357.7871,527.92936 359.53626,528.94594 C 360.89291,529.73441 360.98712,530.01173 359.88841,529.98252 C 357.57621,529.92105 354.06545,528.25405 355.88841,528.08321 C 356.91426,527.98707 356.75622,527.69132 355.38841,527.14757 C 354.28841,526.71029 352.34662,526.74192 351.07331,527.21786 C 349.80001,527.6938 347.15741,528.08321 345.20087,528.08321 C 342.3818,528.08321 341.86912,527.81139 342.73053,526.77345 C 343.32838,526.05308 345.18458,525.55833 346.85541,525.674 C 348.52625,525.78968 350.18673,525.40954 350.54536,524.82926 C 350.92743,524.21106 350.71938,524.06964 350.04292,524.48772 C 348.47901,525.45427 348.59036,523.88632 350.32276,520.54711 C 352.24454,516.84288 353.61026,516.11661 358.68807,516.09852 C 364.00209,516.0796 368.03928,518.08712 371.22413,522.33216 C 373.57796,525.46954 375.32254,533.08321 373.68761,533.08321 C 373.24805,533.08321 372.88841,533.75821 372.88841,534.58321 C 372.88841,536.60502 371.25863,536.49037 370.46126,534.41246 C 369.94988,533.07981 369.44906,533.43363 367.98642,536.16087 C 366.20119,539.48963 366.20274,539.61507 368.04489,540.90537 C 370.81108,542.84288 369.90659,547.12598 366.20053,549.63909 C 362.78056,551.95821 355.45308,552.65218 352.38841,550.94722 z M 369.0125,526.81654 C 368.02488,525.83628 367.91002,525.95114 368.4527,527.37634 C 368.82823,528.36256 369.3874,528.91756 369.69528,528.60967 C 370.00317,528.30178 369.69592,527.49488 369.0125,526.81654 z M 365.38841,523.08321 C 365.04849,522.53321 364.23443,522.0901 363.57939,522.09852 C 362.86378,522.10772 362.98712,522.50075 363.88841,523.08321 C 365.80953,524.32473 366.15572,524.32473 365.38841,523.08321 z"
       id="path2463"
       style="fill:#8d8d8d" />
    <path
       d="M 352.63841,550.66916 C 351.67591,549.95062 350.85678,548.51233 350.81812,547.47297 C 350.75218,545.69996 350.69779,545.70677 349.93768,547.58321 C 349.24765,549.28664 349.02253,549.04516 348.41946,545.95469 C 347.92734,543.43274 348.1925,541.39585 349.28894,539.27556 C 351.30863,535.36992 354.23491,534.425 357.56112,536.60441 C 359.6493,537.97265 360.61064,538.07517 362.64797,537.1469 C 364.93437,536.10515 365.00805,535.89118 363.46815,534.76517 C 361.92522,533.63696 361.91087,533.26854 363.30517,530.58102 C 364.58128,528.12131 364.61774,527.30816 363.52567,525.66342 C 362.80604,524.57959 361.58076,523.5214 360.80283,523.31189 C 359.61342,522.99155 359.60764,523.08435 360.76652,523.89528 C 363.12256,525.54389 360.91303,527.17418 356.55363,527.00374 C 354.26276,526.91418 349.95795,527.18741 346.98739,527.61092 C 343.01224,528.17765 341.77382,528.07764 342.29641,527.23207 C 342.68693,526.6002 344.29308,526.08321 345.86564,526.08321 C 350.05563,526.08321 351.88841,525.11977 351.88841,522.9172 C 351.88841,521.84359 351.48038,521.21736 350.98167,521.52557 C 350.48296,521.83379 350.2961,521.2402 350.56642,520.20649 C 351.20193,517.77632 354.98833,516.08321 359.78758,516.08321 C 367.59415,516.08321 374.80019,524.40947 373.40946,531.8227 C 372.83224,534.89957 372.55037,535.23056 371.74022,533.78289 C 371.2041,532.82491 370.59959,531.17978 370.39685,530.12705 C 369.52074,525.57778 365.29991,521.07867 361.9159,521.08695 C 361.07578,521.089 361.75767,521.92569 363.43121,522.94624 C 369.38774,526.57865 371.15013,532.92655 367.36368,537.11053 C 365.83935,538.79491 365.86973,539.06453 367.80161,540.99641 C 370.4037,543.5985 369.97855,546.92677 366.7347,549.34865 C 363.63977,551.65935 355.04349,552.46463 352.63841,550.66916 z M 355.32365,543.188 C 355.62795,542.69563 355.21892,542.04028 354.41469,541.73167 C 353.61046,541.42306 352.64352,541.67043 352.26593,542.28139 C 351.8502,542.95405 352.0348,543.11077 352.7339,542.6787 C 353.36888,542.28626 353.88841,542.44173 353.88841,543.02419 C 353.88841,544.31791 354.57677,544.39647 355.32365,543.188 z M 365.38841,519.08321 C 362.63933,517.90189 361.06044,517.90189 362.88841,519.08321 C 363.71341,519.61637 365.06341,520.02785 365.88841,519.99761 C 366.87747,519.96137 366.70715,519.64989 365.38841,519.08321 z"
       id="path2461"
       style="fill:#6d6d6d" />
    <path
       d="M 355.86941,550.56032 C 354.79802,549.26938 354.89361,549.13756 356.49697,549.69485 C 358.24023,550.30077 358.23184,550.23062 356.38998,548.7995 C 355.29085,547.94548 354.71747,546.92081 355.11582,546.52247 C 355.51416,546.12413 356.47099,546.32182 357.2421,546.96179 C 358.35148,547.88249 358.74752,547.72997 359.1395,546.23106 C 359.53346,544.72455 359.20021,544.43092 357.51164,544.79673 C 355.95235,545.13453 355.74747,545.00206 356.74026,544.298 C 357.81951,543.53261 357.62923,543.01508 355.79664,541.73148 C 353.68517,540.25255 353.35638,540.25471 351.69479,541.75843 C 350.70128,542.65755 349.8953,543.88594 349.90372,544.4882 C 349.91362,545.19576 350.17899,545.22938 350.65372,544.58321 C 352.4395,542.15254 353.88629,543.18408 353.80946,546.83321 C 353.76604,548.89571 353.48657,549.96979 353.18841,549.22006 C 352.73073,548.06919 352.51181,548.06919 351.78267,549.22006 C 351.16251,550.19891 350.9104,549.87841 350.88841,548.08321 C 350.86698,546.33427 350.60436,545.98297 350.01423,546.91387 C 349.41957,547.85191 348.98405,547.3114 348.53817,545.08201 C 347.84585,541.6204 348.64447,539.51893 351.70486,536.74932 C 353.58856,535.04459 353.89511,535.03531 356.90519,536.59189 C 360.43062,538.41496 364.88841,537.88761 364.88841,535.64749 C 364.88841,534.8788 364.3312,534.06414 363.65017,533.83713 C 362.67062,533.51061 362.67783,532.84079 363.6847,530.63097 C 364.7542,528.28367 364.70871,527.4579 363.39988,525.46038 C 362.54322,524.15294 361.34758,523.08321 360.74291,523.08321 C 360.0045,523.08321 360.04905,523.57185 360.87859,524.57138 C 362.54633,526.58089 360.08269,527.52984 355.45287,526.66128 C 352.48115,526.10378 352.09111,525.69577 352.47996,523.5514 C 352.72612,522.1939 352.46872,521.08321 351.90797,521.08321 C 349.8741,521.08321 350.9513,518.37559 353.43546,517.24372 C 362.99222,512.88938 373.01548,519.86077 372.78429,530.70124 L 372.68018,535.58321 L 371.24098,530.88566 C 369.74414,525.99994 365.09059,521.05077 362.06168,521.12325 C 360.90795,521.15085 361.19779,521.60321 362.99514,522.58012 C 368.78551,525.72735 370.4503,532.081 366.82032,537.17884 C 365.54242,538.97348 365.21373,540.08321 365.96007,540.08321 C 367.85726,540.08321 369.60221,543.12955 369.12749,545.6129 C 368.88515,546.88062 367.23557,548.65838 365.36871,549.66375 C 362.57458,551.16849 361.78565,551.24281 360.44222,550.12787 C 359.07438,548.99266 358.93388,549.03814 359.47251,550.44177 C 360.28639,552.56272 357.60449,552.65096 355.86941,550.56032 z M 367.90262,520.60033 C 366.21758,518.56998 360.27296,517.0563 356.75081,517.76073 C 351.90092,518.73071 352.7569,519.60258 358.23158,519.26899 C 361.73225,519.05569 364.03073,519.44693 365.38841,520.48719 C 367.95568,522.45425 369.49887,522.52369 367.90262,520.60033 z M 342.38841,527.08321 C 342.72833,526.53321 343.42989,526.08321 343.94743,526.08321 C 344.46497,526.08321 344.88841,526.53321 344.88841,527.08321 C 344.88841,527.63321 344.18685,528.08321 343.32939,528.08321 C 342.47193,528.08321 342.04849,527.63321 342.38841,527.08321 z"
       id="path2459"
       style="fill:#4c4c4c" />
    <path
       d="M 359.54633,548.63414 C 359.17467,547.66562 359.47082,547.36947 360.43934,547.74113 C 361.23633,548.04696 361.88841,547.79904 361.88841,547.1902 C 361.88841,546.58135 361.35997,546.08321 360.7141,546.08321 C 360.06822,546.08321 360.63072,544.8783 361.9641,543.40564 L 364.38841,540.72806 L 360.95785,543.10231 C 359.07104,544.40814 357.86206,544.93487 358.27123,544.27281 C 358.70401,543.57256 358.36368,542.81908 357.45754,542.47136 C 356.60083,542.14262 356.08987,541.56626 356.32206,541.19057 C 357.05045,540.012 351.66401,540.02455 350.24198,541.20474 C 347.96477,543.09465 348.6033,540.01559 351.02264,537.44033 C 353.05662,535.27525 353.32617,535.23928 356.76103,536.67445 C 360.74479,538.33898 364.88841,537.8154 364.88841,535.64749 C 364.88841,534.8788 364.40229,534.08783 363.80813,533.88978 C 363.0535,533.63824 363.09313,532.728 363.93959,530.87022 C 365.50606,527.4322 364.71972,525.56056 360.67199,523.09267 C 356.85127,520.7632 357.66314,520.39824 361.84977,522.56323 C 368.35631,525.92789 370.60857,532.28735 366.97016,537.02108 C 365.1219,539.42575 365.12721,539.48321 367.35979,541.23936 C 370.27173,543.52989 369.67866,547.16248 366.11846,548.84263 C 362.63379,550.48713 360.2281,550.41081 359.54633,548.63414 z M 350.96736,544.66654 C 350.92394,543.61238 351.16029,543.02175 351.49258,543.35404 C 351.82487,543.68634 351.8604,544.54884 351.57152,545.27071 C 351.2523,546.06844 351.01534,545.83149 350.96736,544.66654 z M 371.55508,531.41654 C 371.18841,531.04988 370.88841,530.07488 370.88841,529.24988 C 370.88841,527.43678 372.19162,528.54144 372.49554,530.61215 C 372.73482,532.24249 372.54413,532.40559 371.55508,531.41654 z M 354.63841,526.02355 C 353.67591,525.4517 352.88841,524.10619 352.88841,523.03352 C 352.88841,521.96085 352.43841,521.08321 351.88841,521.08321 C 351.33841,521.08321 350.90209,520.29571 350.91882,519.33321 C 350.9472,517.70013 351.0194,517.70383 351.99954,519.38866 C 352.83432,520.82362 353.34397,520.95002 354.48307,520.00465 C 356.15631,518.61598 364.42371,519.45265 366.56169,521.22702 C 368.85339,523.12896 369.05664,521.54506 366.7841,519.49375 C 365.12842,517.99924 363.34177,517.62281 358.57918,517.76509 C 354.56409,517.88503 352.98419,517.63485 353.93962,517.0304 C 357.69233,514.65628 367.84403,517.26325 369.915,521.13289 C 371.24775,523.62316 369.14183,524.18975 365.46433,522.33031 C 362.06188,520.60993 356.14201,519.86386 355.40146,521.06209 C 355.12059,521.51655 356.28084,522.37296 357.97979,522.96522 C 359.73678,523.57771 360.88832,524.58994 360.65028,525.31263 C 360.10648,526.96352 356.86558,527.34676 354.63841,526.02355 z M 369.34729,526.01668 C 368.98476,525.43009 369.01981,524.64259 369.42518,524.26668 C 369.83055,523.89077 370.36405,524.14851 370.61072,524.83944 C 370.8574,525.53037 371.54033,525.79834 372.12833,525.43493 C 372.76023,525.0444 372.90564,525.24632 372.4839,525.9287 C 371.59101,527.37343 370.20975,527.41217 369.34729,526.01668 z"
       id="path2457"
       style="fill:#2b2b2b" />
    <path
       d="M 363.25224,546.58895 C 362.93687,545.76711 362.27599,545.34367 361.78363,545.64797 C 361.29126,545.95227 360.88841,545.75124 360.88841,545.20124 C 360.88841,544.65124 361.33841,543.92313 361.88841,543.58321 C 362.43841,543.24329 362.88841,543.44173 362.88841,544.02419 C 362.88841,544.60665 364.12591,545.06726 365.63841,545.04778 C 368.38054,545.01244 368.38194,545.00875 366.12876,543.75743 C 364.37545,542.78371 364.13711,542.23451 365.0651,541.30652 C 366.69656,539.67506 369.99838,542.60599 369.14391,544.92717 C 367.95645,548.15295 364.25322,549.19747 363.25224,546.58895 z M 356.88841,540.46261 C 355.51341,539.67914 353.37591,539.21086 352.13841,539.42199 C 349.64035,539.84819 349.27257,539.09905 351.08841,537.28321 C 352.54401,535.82761 356.53412,535.70095 357.38841,537.08321 C 358.24768,538.47354 363.23471,538.33691 364.68841,536.88321 C 366.2931,535.27852 366.20499,534.08321 364.48201,534.08321 C 363.33636,534.08321 363.27506,533.43334 364.1514,530.57797 C 365.11152,527.44961 364.96706,526.7899 362.8078,524.44225 C 360.51739,521.952 360.50465,521.87221 362.56887,522.94546 C 365.23664,524.33251 368.88841,529.2973 368.88841,531.53724 C 368.88841,535.4863 363.38829,542.2688 360.4159,541.98516 C 359.85078,541.93123 358.26341,541.24609 356.88841,540.46261 z M 355.13841,525.86272 C 353.06643,524.86344 352.14112,522.16383 353.42912,520.87583 C 354.0573,520.24766 359.88841,525.14964 359.88841,526.30589 C 359.88841,527.36291 357.85582,527.17327 355.13841,525.86272 z M 363.38841,521.08321 C 361.758,520.3826 361.7009,520.21079 363.07939,520.15349 C 364.00943,520.11484 365.04849,520.53321 365.38841,521.08321 C 366.09907,522.23309 366.06432,522.23309 363.38841,521.08321 z"
       id="path2455"
       style="fill:#080808" />
  </g>
</svg>
