/* XPM */
static char *flo[]={
"16 15 155 2",
"Qt c None",
"#C c #c9c9c9",
"ay c #e3e3e3",
"#1 c #aaaaaa",
"ad c #aeaeae",
"#e c #292929",
".J c #2e2e2e",
"#0 c #9f9f9f",
"ax c #9e9e9e",
".q c #111111",
".r c #0e0e0e",
"#L c #9b9b9b",
"#q c #0a0a0a",
"#M c #989898",
"aw c #969696",
".I c #090909",
"ap c #979797",
"aq c #959595",
"av c #949494",
"ac c #959595",
"#2 c #949494",
"ar c #939393",
"au c #929292",
"#Z c #949494",
"#K c #939393",
"as c #929292",
"ae c #939393",
"at c #929292",
"#D c #1f1f1f",
".j c #030303",
"ao c #929292",
"#N c #919191",
"ab c #909090",
".i c #030303",
"#3 c #8f8f8f",
"af c #909090",
".c c #030303",
"#Y c #8f8f8f",
"an c #8e8e8e",
".U c #020202",
"#O c #898989",
".# c #020202",
"ag c #8d8d8d",
"aa c #8d8d8d",
"am c #8c8c8c",
"#4 c #8c8c8c",
".d c #040506",
"#X c #8c8c8c",
".T c #33363e",
"#J c #484849",
"ah c #8b8b8b",
"al c #8a8a8a",
".z c #030406",
"ai c #898989",
"ak c #898989",
"a# c #898989",
"#5 c #888888",
"aj c #898989",
"#W c #858585",
".y c #373c4c",
"#P c #4c4c4c",
"a. c #868686",
"#6 c #858585",
".5 c #0f1421",
"#r c #111625",
".4 c #646d85",
"#9 c #828282",
"#7 c #828282",
"#V c #535355",
"#Q c #3d424d",
"#f c #1f2946",
".b c #1d2335",
"#8 c #808080",
".s c #29334d",
".a c #1b2131",
".p c #535e7f",
"#E c #2b385d",
".K c #303c5f",
"#B c #344677",
"#U c #464a57",
"#R c #444e69",
"#I c #40558b",
"#S c #4d5b82",
"#T c #495370",
".k c #475784",
".h c #586795",
".H c #7e8bae",
"#d c #727a92",
".L c #3f4d74",
".W c #414f74",
".7 c #455176",
"#h c #475477",
".e c #506296",
"#p c #576aa0",
"#m c #5e6476",
".V c #5f77b8",
"#F c #6081dc",
".2 c #61687f",
".M c #6275ab",
"#a c #636b81",
".X c #6374a7",
".1 c #65708c",
".Y c #6778a7",
".N c #6779ab",
"#H c #678bec",
".A c #6983ca",
".P c #6c7aa3",
"#c c #6d7281",
"#s c #6d93fa",
"#G c #7096ff",
".0 c #717ea3",
"#t c #7498fc",
"#A c #7499ff",
"## c #7681a3",
".B c #7992db",
".O c #7b8ec3",
"#l c #7c86a3",
".C c #7d96db",
"#g c #7d9fff",
"#n c #7f8699",
"#o c #838ba1",
"#z c #849fec",
".t c #86a5fa",
".6 c #86a5fd",
"#u c #87a7ff",
".3 c #8991aa",
".f c #89a7fe",
".l c #89a8ff",
".8 c #8ba1df",
".u c #8dabff",
".g c #8eacfe",
".m c #8eacff",
".Z c #90a3db",
".D c #90a9f0",
".9 c #92a6df",
".v c #93b0ff",
".n c #94b0ff",
"#. c #96a8db",
"#v c #97b3ff",
".E c #99b0f2",
".o c #9bb6ff",
"#k c #9daddb",
"#y c #a0b8fb",
"#w c #a2bafe",
".w c #a2bbff",
".x c #a6bbf6",
"#x c #a6bcfd",
"#i c #a6beff",
".F c #aac0ff",
"#j c #afc4ff",
".Q c #b2c5ff",
".G c #b2c6ff",
".R c #b8cafb",
".S c #c1d0f9",
"#b c #cdd9ff",
"QtQtQtQtQtQt.#.a.b.cQtQtQtQtQtQt",
"QtQtQtQtQt.d.e.f.g.h.iQtQtQtQtQt",
"QtQtQtQt.j.k.l.m.n.o.p.qQtQtQtQt",
"QtQtQt.r.s.t.u.v.o.w.x.yQtQtQtQt",
"QtQtQt.z.A.B.C.D.E.F.G.H.IQtQtQt",
"QtQt.J.K.L.M.N.O.P.Q.R.S.TQtQtQt",
"QtQt.U.V.W.X.Y.Z.0.1.2.3.4QtQtQt",
"QtQt.5.6.7.8.9#.###a#b#c#d#eQtQt",
"QtQt#f#g#h#i#j#k#l#m#n#o#p#qQtQt",
"QtQt#r#s#t#u#v#w#x#y#z#A#B#CQtQt",
"QtQt#D#E#F#G#G#G#G#G#H#I#J#K#LQt",
"Qt#M#N#O#P#Q#R#S#T#U#V#W#X#Y#Z#0",
"#1#2#3#4#5#6#7#8#8#9a.a#aaabacad",
"Qt#LaeafagahaiajakalamanaoapadQt",
"QtQtad#LaqarasatauavawaxayQtQtQt"};
