/* XPM */
static char *flo[]={
"32 30 445 2",
"Qt c None",
"aF c #000000",
"cV c #959595",
"#a c #000000",
".I c #000000",
"cw c #959595",
"#A c #000000",
"e2 c #959595",
"dK c #959595",
"am c #000000",
"e6 c #949494",
"cE c #959595",
"e3 c #949494",
"d8 c #959595",
"cF c #949494",
"eT c #949494",
"e1 c #949494",
"et c #949494",
"#7 c #000000",
"cU c #949494",
".J c #000000",
"e5 c #949494",
"dj c #949494",
"cW c #949494",
".e c #000000",
"e4 c #939393",
"eU c #949494",
"cD c #939393",
"d9 c #939393",
"dL c #939393",
"eK c #939393",
"eJ c #939393",
"di c #939393",
"cG c #888888",
"eu c #939393",
"cT c #939393",
"es c #939393",
".# c #000000",
"dJ c #929292",
"bR c #000000",
"cC c #929292",
"cX c #929292",
"b7 c #000000",
"eL c #929292",
"eV c #929292",
"e. c #929292",
".m c #000000",
"dM c #919191",
"eI c #929292",
"#B c #000000",
".w c #000000",
"cS c #919191",
"eW c #919191",
"er c #919191",
"#b c #000000",
"dI c #919191",
"cY c #919191",
"dk c #919191",
".x c #000000",
"cB c #757575",
"eX c #909090",
"e0 c #909090",
"e# c #909090",
"cR c #909090",
"dh c #909090",
"eZ c #909090",
"d7 c #909090",
"a0 c #000000",
"eS c #8f8f8f",
"eM c #909090",
"eY c #8f8f8f",
"eq c #8f8f8f",
"dH c #8f8f8f",
"cZ c #8f8f8f",
"dl c #8f8f8f",
"eH c #8f8f8f",
"ea c #8e8e8e",
"cQ c #8f8f8f",
"ev c #8e8e8e",
".f c #000000",
"#R c #000000",
"dg c #8e8e8e",
"d6 c #8e8e8e",
"aE c #000000",
"ep c #8e8e8e",
"dG c #8e8e8e",
"eR c #8d8d8d",
"dm c #8d8d8d",
"ew c #8d8d8d",
"eb c #8d8d8d",
"c0 c #7d7d7d",
"df c #8d8d8d",
"cP c #7d7d7d",
"eQ c #8d8d8d",
"dN c #8d8d8d",
"d5 c #8c8c8c",
"eG c #8c8c8c",
"eN c #8c8c8c",
"dF c #8c8c8c",
"ex c #8c8c8c",
"dn c #8c8c8c",
"eO c #8b8b8b",
".n c #000000",
"ec c #8b8b8b",
"de c #8b8b8b",
".0 c #000000",
"eP c #8b8b8b",
"dO c #8b8b8b",
"an c #000000",
"eF c #8b8b8b",
"eo c #8b8b8b",
"d4 c #8b8b8b",
"ey c #8a8a8a",
"dE c #8a8a8a",
"#n c #000000",
"do c #8a8a8a",
".Q c #000000",
"dd c #8a8a8a",
"eE c #8a8a8a",
"ez c #898989",
"dP c #898989",
"en c #898989",
"d3 c #898989",
".d c #000000",
"dD c #898989",
"dp c #888888",
"b8 c #000000",
"ed c #888888",
".a c #000000",
"dc c #7b7b7b",
"eD c #888888",
"cH c #151515",
"em c #888888",
"dQ c #888888",
"d2 c #878787",
"eC c #878787",
"by c #000000",
"dC c #878787",
"#S c #000000",
"dq c #878787",
"eA c #878787",
"eB c #878787",
"el c #868686",
"dR c #868686",
"cv c #040404",
"c1 c #303030",
"d1 c #868686",
"dB c #858585",
"#6 c #101012",
"aZ c #000000",
"ek c #858585",
".R c #000000",
"bS c #000000",
"ee c #848484",
"dS c #848484",
"dr c #6e6e6e",
"d0 c #848484",
"dA c #848484",
"cO c #222222",
"ej c #848484",
"ef c #838383",
"#o c #000000",
"ei c #838383",
"dT c #838383",
"db c #3a3a3a",
"eg c #838383",
"dz c #828282",
"eh c #828282",
"ds c #5e5e5e",
".H c #010101",
"cA c #0b0b0d",
"## c #16171b",
"dU c #818181",
"c2 c #171717",
"dZ c #818181",
".c c #000000",
"dt c #545454",
"dy c #6e6e6e",
"aG c #000000",
".b c #000000",
".l c #000000",
".K c #010101",
"dV c #7f7f7f",
"da c #1f2023",
"du c #4b4b4b",
"dY c #7f7f7f",
"dx c #606060",
"cm c #04060a",
"dv c #4c4c4c",
"dw c #565656",
".g c #000000",
"dW c #7e7e7e",
".v c #040405",
"cI c #0a0d16",
"#z c #15181f",
"dX c #7e7e7e",
"#8 c #000000",
"bh c #090c15",
"c3 c #101520",
"al c #4b505c",
"#c c #010203",
"d# c #191f2f",
"cN c #1e2943",
".y c #040608",
".Z c #2f3442",
".o c #06070a",
"aJ c #020204",
"#V c #020305",
"#C c #040509",
"a4 c #06070b",
"a# c #080a0f",
"aA c #09090c",
"bl c #090a0f",
"a1 c #090c14",
"cn c #0a0e17",
"b1 c #0e0f12",
"bq c #131419",
"aW c #141519",
"bx c #161e33",
"bN c #17181b",
"cx c #171f34",
"az c #181a21",
".h c #181c29",
"ao c #19223a",
".k c #1a1e2b",
"bb c #1c1e26",
"b6 c #1c2640",
".1 c #1d2333",
"bQ c #1d2743",
"bi c #1e2844",
"b3 c #202226",
"d. c #222d4d",
"b9 c #243052",
"c4 c #2c3b65",
"#2 c #2e3447",
"bz c #2e3e69",
"af c #2f3547",
"aw c #2f3647",
"aK c #2f374f",
"aL c #30384f",
"#W c #303b57",
"aQ c #313647",
"aM c #31394f",
"b# c #323747",
"aN c #32394f",
"#X c #323c57",
"c9 c #324271",
"bo c #333847",
"#Y c #333c57",
"bH c #343947",
"#Z c #343d57",
"bY c #363a47",
"bT c #36487b",
".S c #384466",
"#T c #394974",
"cJ c #3a4e85",
"c5 c #3d518a",
"b2 c #3e414a",
"be c #3e424c",
"c8 c #425896",
"#p c #435689",
".i c #45547f",
"cu c #465ea0",
".j c #475884",
"ay c #4a5166",
"cz c #4a63a9",
"aH c #4c64a8",
"bu c #4d515c",
"c6 c #4d67af",
"bJ c #4e5364",
".p c #4f6193",
".P c #515d82",
"cM c #516cb8",
"c7 c #526dba",
"aS c #555d75",
".L c #55679e",
"aT c #575f75",
".u c #576896",
"#0 c #6373a1",
"#E c #6379b7",
"#F c #657ab7",
".z c #657cbd",
"#G c #677cb7",
"co c #678aeb",
"#m c #697595",
"#H c #697db7",
"cK c #698def",
".G c #6a7db3",
"cy c #6a8ef1",
"#I c #6c80b7",
"cl c #6d92f9",
"#d c #6e88cf",
"b4 c #6f737f",
"cL c #6f95fd",
"c. c #7096fe",
"bU c #7096ff",
"#Q c #717ea0",
"ct c #7197ff",
"#9 c #728edc",
"#1 c #7386b7",
"bA c #7398ff",
"a5 c #7488bf",
"ae c #7687b7",
"b5 c #769aff",
"aB c #777f97",
"a6 c #7789bf",
"a2 c #7798f9",
"cp c #779bff",
"#U c #7893df",
"av c #7989b7",
"#D c #7997ea",
"a7 c #7a8cbf",
"a. c #7a95df",
"aP c #7b8bb7",
"bK c #7c859d",
"b. c #7d8db7",
"a8 c #7d8fbf",
"aq c #7d97df",
"cs c #7d9fff",
"aD c #7e89a8",
".2 c #7e9cee",
"bj c #7ea0ff",
"aI c #7f99df",
"ck c #80a2ff",
"bn c #818eb7",
"#L c #8195cc",
"#J c #8198d7",
"a3 c #8299df",
"c# c #83a1f8",
"bG c #8491b7",
"bk c #849ddf",
"cr c #84a4ff",
"bV c #859ddf",
".q c #85a5fb",
"cq c #85a5ff",
"bX c #8693b7",
".T c #86a5fd",
".A c #87a7ff",
"bC c #889fdf",
"#e c #88a7ff",
".3 c #88a8ff",
".B c #89a8ff",
"ap c #89a9ff",
".r c #8aa8ff",
"#f c #8aaaff",
"#q c #8ba9ff",
".4 c #8baaff",
".C c #8caaff",
".s c #8cabff",
"#r c #8dacff",
".t c #8eabfc",
".5 c #8eacff",
".U c #8eadff",
"bv c #8f95a5",
".D c #8fadff",
"#g c #90adff",
"ci c #919dc0",
"#K c #91a8eb",
".6 c #91afff",
".E c #92aeff",
".M c #92afff",
"#s c #93b0ff",
".V c #94b0ff",
"#h c #94b1ff",
".F c #95b1ff",
"aa c #96b1ff",
"ar c #96b2ff",
"bB c #97b1ff",
"ca c #97b2ff",
"#i c #97b3ff",
".N c #98b4ff",
"#. c #99abdb",
"as c #99b3ff",
"ab c #99b4ff",
"#t c #9ab5ff",
".W c #9bb6ff",
".7 c #9cb6ff",
"at c #9cb7ff",
"bf c #9da4ba",
".O c #9db6ff",
"ac c #9db7ff",
"#u c #9eb8ff",
".Y c #9fb6f5",
".X c #9fb8ff",
"b0 c #a0abc9",
"ad c #a1b9ff",
"ax c #a2b3e4",
"cj c #a2b7f4",
"#j c #a2baff",
"bD c #a2bcff",
".8 c #a3bcff",
"au c #a4bcff",
"aV c #a6b2d4",
"#M c #a6bdff",
"#v c #a6beff",
".9 c #a7beff",
"bc c #a9b6dd",
"aO c #a9bfff",
"#3 c #a9c0ff",
"aY c #aab9e3",
"#k c #aac1ff",
"bE c #abc0ff",
"bm c #abc1ff",
"a9 c #acc2ff",
"#w c #aec3ff",
"#l c #afc5ff",
"bP c #b0c5ff",
"#y c #b1c4f6",
"ah c #b2c4f4",
"#N c #b2c6ff",
"#x c #b3c7ff",
"bF c #b4c7ff",
"aR c #b5c9ff",
"ag c #b6c9ff",
"#O c #b6caff",
"br c #b7c4ea",
"#5 c #b7c5eb",
"cb c #b7caff",
"bW c #b8caff",
"ba c #b9cbff",
"cc c #bbceff",
"#P c #bccdff",
"ai c #bdcdfc",
"bp c #bdceff",
"aU c #bfcffb",
"cd c #bfcffd",
"#4 c #c0d1ff",
"bI c #c1d1ff",
"ce c #c2cffa",
"ch c #c4d0ef",
"aj c #c5d4ff",
"bZ c #c6d5ff",
"bd c #c8d6ff",
"ak c #c9d7fe",
"bg c #c9d8fe",
"cf c #cbd9ff",
"bs c #ccd9ff",
"aX c #ced8f9",
"aC c #cedbff",
"bM c #cfd9f6",
"cg c #d0dcff",
"bL c #d1ddff",
"bt c #d2deff",
"bO c #d3daee",
"bw c #dbe5ff",
"QtQtQtQtQtQtQtQtQtQtQtQtQt.#.a.b.c.d.eQtQtQtQtQtQtQtQtQtQtQtQtQt",
"QtQtQtQtQtQtQtQtQtQtQtQt.f.g.h.i.j.k.l.mQtQtQtQtQtQtQtQtQtQtQtQt",
"QtQtQtQtQtQtQtQtQtQtQt.n.o.p.q.r.s.t.u.v.wQtQtQtQtQtQtQtQtQtQtQt",
"QtQtQtQtQtQtQtQtQtQt.x.y.z.A.B.C.D.E.F.G.H.IQtQtQtQtQtQtQtQtQtQt",
"QtQtQtQtQtQtQtQtQt.J.K.L.A.B.C.D.M.F.N.O.P.QQtQtQtQtQtQtQtQtQtQt",
"QtQtQtQtQtQtQtQtQt.R.S.T.B.C.U.M.V.N.W.X.Y.Z.mQtQtQtQtQtQtQtQtQt",
"QtQtQtQtQtQtQtQt.0.1.2.3.4.5.6.V.N.7.X.8.9#.###aQtQtQtQtQtQtQtQt",
"QtQtQtQtQtQtQt#b#c#d#e#f.5#g#h#i.7.X#j.9#k#l#m#nQtQtQtQtQtQtQtQt",
"QtQtQtQtQtQtQt#o#p.A#q#r#g#s#i#t#u#j#v#k#w#x#y#z#AQtQtQtQtQtQtQt",
"QtQtQtQtQtQt#B#C#D#E#F#G#H#I#J#K#L#M#k#w#N#O#P#Q#RQtQtQtQtQtQtQt",
"QtQtQtQtQtQt#S#T#U#V#W#X#Y#Z#0#1#2#3#w#N#O#P#4#5#6QtQtQtQtQtQtQt",
"QtQtQtQtQt#7#8#9a.a##saaabacadaeaf#w#NagahaiajakalamQtQtQtQtQtQt",
"QtQtQtQtQtanaoapaqa#arasatadauavaw#NaxayazaAaBaCaDaEQtQtQtQtQtQt",
"QtQtQtQtaFaGaH.DaIaJaKaLaMaNaOaPaQaRaSaTaUaVaWaXaYaZQtQtQtQtQtQt",
"QtQtQtQta0a1a2.Ma3a4a5a6a7a8a9b.b#babbbcbdaCbebfbgbhaFQtQtQtQtQt",
"QtQtQtQtanbibj.Vbkbl.Xau.9bm#lbnbobpbqbrbsbtbubvbwbx.JQtQtQtQtQt",
"QtQtQtQtbybzbAbBbCblbD.9bE#lbFbGbHbIbJbKbLbMbNbObPbQbRQtQtQtQtQt",
"QtQtQtQtbSbTbUbjbVbl#v#k#l#xbWbXbYbZb0b1b2b3b4#Ob5b6b7QtQtQtQtQt",
"QtQtQtQtb8b9bUbUc.c#caaO#xcbcccdcecfcgchcicjckbUclcmQtQtQtQtQtQt",
"QtQtQtQtaEcncobUbUbUbUbUcpbjcq.4.BcrcsctbUbUbUbUcucvcwQtQtQtQtQt",
"QtQtQtQtQtbycxcybUbUbUbUbUbUbUbUbUbUbUbUbUbUbUczcAcBcCcDcEQtQtQt",
"QtQtQtQtcFcGcHcIcJcKbUbUbUbUbUbUbUbUbUbUcLcMcNcOcPcQcRcScTcUQtQt",
"QtQtcVcWcXcYcZc0c1c2c3b6c4c5c6c7c8c9d.d#dadbdcdddedfdgdhcSdicFQt",
"QtQtdjcXdkdldmdndodpdqdrdsdtdudvdwdxdydzdAdBdCdDdEdFdGdHdIdJcUQt",
"QtdKdLdMcRdgdNdOdPdQdRdSdTdUdVdWdXdYdZdzd0d1d2d3d4d5d6d7cSdid8Qt",
"QtdKd9e.e#eaebecddeddCd1eeefegehdzeiejekelemeneod5epeqeresetQtQt",
"QtQteteucSdhevewexeyezdpemdCeAeBeAeCeDdDeEeFeGdmeHe#eIeJd8QtQtQt",
"QtQtQtcFeKeLcYeMeadGdfeNeOePdOdOePeceNeQeReveSdkeLeKeTQtQtQtQtQt",
"QtQtQtQtQtd8eUcTeVeWeXcReSdHcZdHeYeZe0dIdMcCdLe1cVQtQtQtQtQtQtQt",
"QtQtQtQtQtQtQtQtcVe2e3cUcWcDcDe4e5eTe6cwQtQtQtQtQtQtQtQtQtQtQtQt"};
