<?xml version="1.0" encoding="UTF-8" standalone="no"?>
<!-- Created with Inkscape (http://www.inkscape.org/) -->
<svg
   xmlns:svg="http://www.w3.org/2000/svg"
   xmlns="http://www.w3.org/2000/svg"
   version="1.0"
   id="svg2">
  <defs
     id="defs4" />
  <g
     id="layer1">
    <g
       transform="matrix(8.5959536,0,0,8.8203555,-3077.748,-4547.6832)"
       id="g2436">
      <path
         d="M 359,532.36218 L 359,516.36218 L 375,516.36218 L 391,516.36218 L 391,532.36218 L 391,548.36218 L 375,548.36218 L 359,548.36218 L 359,532.36218 z M 388,537.11834 C 388,529.94448 387.83606,529.20412 386.61677,530.8716 C 385.58998,532.27582 385.5112,533.20788 386.31104,534.48863 C 387.08963,535.73535 387.06319,536.92809 386.21571,538.78809 C 385.29053,540.81863 384.32515,541.36218 381.64388,541.36218 C 379.75887,541.36218 377.65789,540.65489 376.92704,539.77427 C 375.74197,538.34634 375.53137,538.39672 374.83682,540.27427 C 374.26048,541.83225 373.19902,542.36218 370.65467,542.36218 C 366.71542,542.36218 364.71256,540.46338 365.14787,537.1415 C 365.33165,535.73912 364.54395,533.90613 363.16489,532.52707 C 360.56327,529.92545 360.64809,527.05363 363.34188,526.53486 C 364.34228,526.3422 367.40572,526.91884 370.1495,527.81629 L 375.13821,529.44801 L 378.65104,526.36371 C 380.58309,524.66734 383.43363,523.02545 384.98557,522.71507 C 386.94186,522.32381 387.94764,521.41641 388.26496,519.75645 L 388.72266,517.36218 L 374.36133,517.36218 L 360,517.36218 L 359.99838,531.61218 L 359.99676,545.86218 L 373.99838,545.55947 L 388,545.25676 L 388,537.11834 z"
         id="path2450"
         style="fill:#a6a6a9" />
      <path
         d="M 359,532.36218 L 359,516.36218 L 375,516.36218 L 391,516.36218 L 391,532.36218 L 391,548.36218 L 375,548.36218 L 359,548.36218 L 359,532.36218 z M 390,532.36218 L 390,517.36218 L 375,517.36218 L 360,517.36218 L 360,532.36218 L 360,547.36218 L 375,547.36218 L 390,547.36218 L 390,532.36218 z M 367.04394,540.91513 C 366.38342,540.11925 365.98441,538.38892 366.15725,537.06995 C 366.37386,535.41698 365.56941,533.89587 363.5683,532.17458 C 359.43874,528.62249 360.56543,525.87608 365.76056,526.83069 C 367.81725,527.2086 369.9275,527.93279 370.45,528.44 C 372.12292,530.06393 375.76363,529.43116 378.67327,527.01075 C 382.28534,524.00603 385.42177,522.36218 387.54267,522.36218 C 389.65292,522.36218 388.84333,526.56104 385.96224,530.55897 C 384.80103,532.17031 384.41751,533.50218 385.0094,533.86799 C 386.3839,534.71748 386.25104,538.71114 384.8,540.16218 C 383.09876,541.86342 379.97401,541.64863 377.7998,539.681 C 376.04972,538.0972 375.85361,538.12617 374.41435,540.181 C 372.66988,542.67158 368.81992,543.05505 367.04394,540.91513 z"
         id="path2448"
         style="fill:#df6200" />
      <path
         d="M 359,532.36218 L 359,516.36218 L 375,516.36218 L 391,516.36218 L 391,532.36218 L 391,548.36218 L 375,548.36218 L 359,548.36218 L 359,532.36218 z M 390,532.36218 L 390,517.36218 L 375,517.36218 L 360,517.36218 L 360,532.36218 L 360,547.36218 L 375,547.36218 L 390,547.36218 L 390,532.36218 z M 367.04394,540.91513 C 366.38342,540.11925 365.98441,538.38892 366.15725,537.06995 C 366.37386,535.41698 365.56941,533.89587 363.5683,532.17458 C 359.43874,528.62249 360.56543,525.87608 365.76056,526.83069 C 367.81725,527.2086 369.9275,527.93279 370.45,528.44 C 372.12292,530.06393 375.76363,529.43116 378.67327,527.01075 C 382.28534,524.00603 385.42177,522.36218 387.54267,522.36218 C 389.65292,522.36218 388.84333,526.56104 385.96224,530.55897 C 384.80103,532.17031 384.41751,533.50218 385.0094,533.86799 C 386.3839,534.71748 386.25104,538.71114 384.8,540.16218 C 383.09876,541.86342 379.97401,541.64863 377.7998,539.681 C 376.04972,538.0972 375.85361,538.12617 374.41435,540.181 C 372.66988,542.67158 368.81992,543.05505 367.04394,540.91513 z M 373,536.86218 C 373,536.03718 372.56412,535.36218 372.03139,535.36218 C 371.49865,535.36218 371.32179,536.03718 371.63837,536.86218 C 371.95496,537.68718 372.39083,538.36218 372.60699,538.36218 C 372.82315,538.36218 373,537.68718 373,536.86218 z M 381.27814,537.24032 C 380.66112,536.6233 380.39427,535.4983 380.68513,534.74032 C 380.99923,533.9218 380.56143,533.36218 379.60699,533.36218 C 378.72314,533.36218 378,533.77538 378,534.28039 C 378,536.43166 379.32759,538.36218 380.80699,538.36218 C 381.98435,538.36218 382.10728,538.06946 381.27814,537.24032 z M 370.25,531.6999 C 369.5625,531.42249 368.4375,531.42249 367.75,531.6999 C 367.0625,531.97731 367.625,532.20428 369,532.20428 C 370.375,532.20428 370.9375,531.97731 370.25,531.6999 z M 384,528.79469 C 384,527.60539 383.64819,527.56494 382.03989,528.56934 C 380.69127,529.41157 380.4424,530.01756 381.24214,530.51183 C 382.7343,531.43404 384,530.64597 384,528.79469 z"
         id="path2446"
         style="fill:#b55f0c" />
      <path
         d="M 359,532.36218 L 359,516.36218 L 375,516.36218 L 391,516.36218 L 391,532.36218 L 391,548.36218 L 375,548.36218 L 359,548.36218 L 359,532.36218 z M 390,532.36218 L 390,517.36218 L 375,517.36218 L 360,517.36218 L 360,532.36218 L 360,547.36218 L 375,547.36218 L 390,547.36218 L 390,532.36218 z M 367.04394,540.91513 C 366.38342,540.11925 365.98441,538.38892 366.15725,537.06995 C 366.37386,535.41698 365.56941,533.89587 363.5683,532.17458 C 359.43874,528.62249 360.56543,525.87608 365.76056,526.83069 C 367.81725,527.2086 369.9275,527.93279 370.45,528.44 C 372.12292,530.06393 375.76363,529.43116 378.67327,527.01075 C 382.28534,524.00603 385.42177,522.36218 387.54267,522.36218 C 389.65292,522.36218 388.84333,526.56104 385.96224,530.55897 C 384.80103,532.17031 384.41751,533.50218 385.0094,533.86799 C 386.3839,534.71748 386.25104,538.71114 384.8,540.16218 C 383.09876,541.86342 379.97401,541.64863 377.7998,539.681 C 376.04972,538.0972 375.85361,538.12617 374.41435,540.181 C 372.66988,542.67158 368.81992,543.05505 367.04394,540.91513 z M 373.5,539.36218 C 373.20706,538.88819 373.42472,538.21772 373.98369,537.87226 C 375.78271,536.76041 375.06569,534.36218 372.93426,534.36218 C 370.07954,534.36218 367,536.15349 367,537.81403 C 367,538.57385 368.2375,539.62229 369.75,540.1439 C 372.66666,541.14977 374.38359,540.79186 373.5,539.36218 z M 378.45437,538.28835 C 378.08338,537.68807 378.68302,537.77178 379.81416,538.47819 C 381.45008,539.49984 382.13639,539.49387 383.39778,538.44701 C 385.77755,536.47198 383.678,533.36218 379.96482,533.36218 C 377.52549,533.36218 377,533.77574 377,535.69551 C 377,536.97885 377.3,538.32885 377.66667,538.69551 C 378.70352,539.73237 379.19107,539.48036 378.45437,538.28835 z M 372.89812,531.79739 C 373.81626,530.87925 370.65583,529.39367 367.75,529.37749 C 365.10999,529.36279 364.07852,531.10736 365.74306,532.7719 C 366.49827,533.52712 371.90475,532.79077 372.89812,531.79739 z M 383.57294,530.59687 C 384.16306,530.19279 384.95864,529.01681 385.3409,527.98359 C 385.95515,526.32332 385.6672,526.17874 382.86327,526.73953 C 379.20929,527.47032 376.77471,529.18864 377.57003,530.47549 C 378.23019,531.54366 382.07666,531.62143 383.57294,530.59687 z"
         id="path2444"
         style="fill:#a03f00" />
      <path
         d="M 359,532.36218 L 359,516.36218 L 375,516.36218 L 391,516.36218 L 391,532.36218 L 391,548.36218 L 375,548.36218 L 359,548.36218 L 359,532.36218 z M 390,532.36218 L 390,517.36218 L 375,517.36218 L 360,517.36218 L 360,532.36218 L 360,547.36218 L 375,547.36218 L 390,547.36218 L 390,532.36218 z M 367.04394,540.91513 C 366.38342,540.11925 365.98441,538.38892 366.15725,537.06995 C 366.37386,535.41698 365.56941,533.89587 363.5683,532.17458 C 359.43874,528.62249 360.56543,525.87608 365.76056,526.83069 C 367.81725,527.2086 369.9275,527.93279 370.45,528.44 C 372.12292,530.06393 375.76363,529.43116 378.67327,527.01075 C 382.28534,524.00603 385.42177,522.36218 387.54267,522.36218 C 388.86127,522.36218 389.07759,522.94621 388.56124,525.11218 C 388.20068,526.62468 387.09323,528.99174 386.10024,530.37231 C 384.73936,532.26437 384.55493,533.29482 385.35122,534.55721 C 386.11915,535.77463 386.03275,536.93246 385.03484,538.79708 C 383.45057,541.75732 380.49333,542.11861 377.7998,539.681 C 376.04972,538.0972 375.85361,538.12617 374.41435,540.181 C 372.66988,542.67158 368.81992,543.05505 367.04394,540.91513 z M 374.3,537.96218 C 375.582,534.11616 374.03004,532.75936 370.36054,534.51811 C 366.69522,536.27485 366.12046,539.07972 369.17576,540.29999 C 372.36671,541.57444 373.22669,541.1821 374.3,537.96218 z M 383.7532,538.20898 C 385.66701,536.29517 383.37451,533.36218 379.96482,533.36218 C 377.52549,533.36218 377,533.77574 377,535.69551 C 377,536.97885 377.3,538.32885 377.66667,538.69551 C 378.73612,539.76497 382.49791,539.46426 383.7532,538.20898 z M 372.89812,531.79739 C 373.81626,530.87925 370.65583,529.39367 367.75,529.37749 C 365.10999,529.36279 364.07852,531.10736 365.74306,532.7719 C 366.49827,533.52712 371.90475,532.79077 372.89812,531.79739 z M 385.81955,528.61218 C 386.07306,526.82718 385.65404,526.36218 383.79206,526.36218 C 380.91711,526.36218 376.74024,529.13286 377.57617,530.48543 C 377.91147,531.02795 379.8315,531.33466 381.8429,531.16701 C 384.7606,530.92381 385.56461,530.40727 385.81955,528.61218 z"
         id="path2442"
         style="fill:#6b3407" />
      <path
         d="M 359,532.36218 L 359,516.36218 L 375,516.36218 L 391,516.36218 L 391,532.36218 L 391,548.36218 L 375,548.36218 L 359,548.36218 L 359,532.36218 z M 390,532.36218 L 390,517.36218 L 375,517.36218 L 360,517.36218 L 360,532.36218 L 360,547.36218 L 375,547.36218 L 390,547.36218 L 390,532.36218 z M 367.40499,540.11218 C 365.50192,537.86445 365.5021,537.86395 367.57874,539.61218 C 370.29643,541.90009 372.67854,541.83136 373.96482,539.42792 C 375.33578,536.86626 375.28537,533.36218 373.87755,533.36218 C 373.07262,533.36218 373.08764,532.9615 373.93066,531.94573 C 374.86325,530.82203 374.73354,530.42208 373.3031,530.01058 C 371.8874,529.60333 371.94805,529.53125 373.58543,529.67512 C 374.73242,529.7759 377.32817,528.40322 379.35377,526.62472 C 382.92493,523.4892 387.51329,521.54214 388.65074,522.67958 C 388.95742,522.98626 388.70647,524.5028 388.09308,526.04968 C 387.35004,527.92352 387.11313,528.12665 387.38323,526.65832 C 387.7478,524.6764 387.47197,524.51344 384.64432,525.04022 C 380.67743,525.77922 375.43355,530.38457 377.24753,531.53632 C 378.2475,532.17123 378.24799,532.33464 377.25,532.34687 C 375.35119,532.37013 375.75724,536.83251 377.82874,538.70719 C 380.00968,540.68092 382.08954,540.81737 384.00177,539.11218 C 385.1943,538.04877 385.20588,538.12341 384.07933,539.61218 C 382.41089,541.81708 380.18707,541.84145 377.7998,539.681 C 376.04972,538.0972 375.85361,538.12617 374.41435,540.181 C 372.45209,542.98252 369.81326,542.95661 367.40499,540.11218 z M 362.65499,531.53344 C 360.56672,529.22593 360.55262,527.74783 362.61134,526.95783 C 363.78784,526.50636 364.05867,526.76691 363.61493,527.92328 C 363.28066,528.79436 363.47139,530.37446 364.03877,531.43462 C 365.33667,533.85976 364.79527,533.89843 362.65499,531.53344 z"
         id="path2440"
         style="fill:#3f1f00" />
      <path
         d="M 359,532.36218 L 359,516.36218 L 375,516.36218 L 391,516.36218 L 391,532.36218 L 391,548.36218 L 375,548.36218 L 359,548.36218 L 359,532.36218 z M 390,532.36218 L 390,517.36218 L 375,517.36218 L 360,517.36218 L 360,532.36218 L 360,547.36218 L 375,547.36218 L 390,547.36218 L 390,532.36218 z"
         id="path2438"
         style="fill:#000000" />
    </g>
  </g>
</svg>
